<svg xmlns="http://www.w3.org/2000/svg" width="1155" height="732" viewBox="0 0 1155 732">
  <g id="Grupo_80143" data-name="Grupo 80143" transform="translate(10471.666 8651)">
    <path id="Trazado_113608" data-name="Trazado 113608" d="M0,0H650" transform="translate(-10218.999 -8491.165)" fill="none" stroke="#12263f" stroke-width="3"/>
    <line id="Línea_151" data-name="Línea 151" y2="293.988" transform="translate(-10218.729 -8491.5)" fill="none" stroke="#12263f" stroke-width="3"/>
    <line id="Línea_158" data-name="Línea 158" y2="294.903" transform="translate(-9568.365 -8491.165)" fill="none" stroke="#12263f" stroke-width="3"/>
    <line id="Línea_152" data-name="Línea 152" y2="92.814" transform="translate(-9893.546 -8584.314)" fill="none" stroke="#12263f" stroke-width="3"/>
    <line id="Línea_153" data-name="Línea 153" y2="138" transform="translate(-10067.878 -8239)" fill="none" stroke="#12263f" stroke-width="3"/>
    <line id="Línea_156" data-name="Línea 156" y2="138" transform="translate(-9418.498 -8239)" fill="none" stroke="#12263f" stroke-width="3"/>
    <line id="Línea_154" data-name="Línea 154" y2="138" transform="translate(-10369.969 -8239)" fill="none" stroke="#12263f" stroke-width="3"/>
    <line id="Línea_159" data-name="Línea 159" y2="138" transform="translate(-9711.879 -8239)" fill="none" stroke="#12263f" stroke-width="3"/>
    <line id="Línea_155" data-name="Línea 155" x1="302" transform="translate(-10370.166 -8173.924)" fill="none" stroke="#12263f" stroke-width="3"/>
    <line id="Línea_157" data-name="Línea 157" x1="291.529" transform="translate(-9710.166 -8175.44)" fill="none" stroke="#12263f" stroke-width="3"/>
    <rect id="Rectángulo_33803" data-name="Rectángulo 33803" width="203" height="182" rx="31" transform="translate(-10471.666 -8101)" fill="#5038a1"/>
    <rect id="Rectángulo_33818" data-name="Rectángulo 33818" width="203" height="182" rx="31" transform="translate(-9811.277 -8101)" fill="#5038a1"/>
    <rect id="Rectángulo_33814" data-name="Rectángulo 33814" width="203" height="182" rx="31" transform="translate(-10169.666 -8101)" fill="#5038a1"/>
    <rect id="Rectángulo_33817" data-name="Rectángulo 33817" width="203" height="182" rx="31" transform="translate(-9519.666 -8101)" fill="#5038a1"/>
    <rect id="Rectángulo_33804" data-name="Rectángulo 33804" width="203" height="151.915" rx="31" transform="translate(-10471.666 -8390.915)" fill="#5038a1"/>
    <rect id="Rectángulo_33819" data-name="Rectángulo 33819" width="203" height="151.915" rx="31" transform="translate(-9811.277 -8390.331)" fill="#5038a1"/>
    <rect id="Rectángulo_33815" data-name="Rectángulo 33815" width="203" height="151.915" rx="31" transform="translate(-10169.95 -8390.915)" fill="#5038a1"/>
    <rect id="Rectángulo_33816" data-name="Rectángulo 33816" width="203" height="157.355" rx="31" transform="translate(-9519.666 -8396.355)" fill="#5038a1"/>
    <path id="Trazado_183767" data-name="Trazado 183767" d="M36.5,0h214a36.5,36.5,0,0,1,0,73H36.5a36.5,36.5,0,0,1,0-73Z" transform="translate(-10037.033 -8651)" fill="#fedc72"/>
    <path id="Trazado_183783" data-name="Trazado 183783" d="M24.3,0h168.56c13.423,0,24.3,13.879,24.3,31s-10.881,31-24.3,31H24.3C10.881,62,0,48.121,0,31S10.881,0,24.3,0Z" transform="translate(-10331.069 -8203.407)" fill="#fdb74d"/>
    <path id="Trazado_183783-2" data-name="Trazado 183783" d="M23.371,0H185.463c12.908,0,23.371,13.879,23.371,31S198.37,62,185.463,62H23.371C10.464,62,0,48.121,0,31S10.464,0,23.371,0Z" transform="translate(-9668.713 -8204.924)" fill="#fdb74d"/>
    <text id="Estructuración_de_planes_de_emergencia_y_contingencias" data-name="Estructuración de planes de emergencia y contingencias" transform="translate(-10001.037 -8636.999)" fill="#12263f" font-size="16" font-family="Roboto-Bold, Roboto" font-weight="700"><tspan x="-99.922" y="17">Estructuración de planes de </tspan><tspan x="-100.992" y="41">emergencia y contingencias</tspan></text>
    <text id="Gestión_del_riesgo" data-name="Gestión del riesgo" transform="translate(-10307.487 -8183.339)" fill="#12263f" font-size="16" font-family="Roboto-Bold, Roboto" font-weight="700"><tspan x="-65.219" y="17">Gestión del riesgo</tspan></text>
    <text id="Desarrollo_de_practicas_y_simulacros" data-name="Desarrollo de practicas y simulacros" transform="translate(-9649.796 -8196.262)" fill="#12263f" font-size="16" font-family="Roboto-Bold, Roboto" font-weight="700"><tspan x="-82.891" y="17">Desarrollo de practicas </tspan><tspan x="-45.641" y="41">y simulacros</tspan></text>
    <text id="Documentar_Planes_operativos_de_acuerdo_a_la_necesidad_especifica_del_evento" data-name="Documentar Planes operativos de acuerdo a la necesidad especifica del evento" transform="translate(-10455.666 -8056.5)" fill="#fff" font-size="16" font-family="Roboto-Regular, Roboto"><tspan x="-69.84" y="17">Documentar Planes </tspan><tspan x="-85.262" y="41">operativos de acuerdo a </tspan><tspan x="-82.961" y="65">la necesidad especifica </tspan><tspan x="-36.484" y="89">del evento</tspan></text>
    <text id="Practica:_Desarrollo_de_simulacro" data-name="Practica: Desarrollo de simulacro" transform="translate(-9795.734 -8032.5)" fill="#fff" font-size="16" font-family="Roboto-Regular, Roboto"><tspan x="-80.184" y="17">Practica: Desarrollo de </tspan><tspan x="-35.16" y="41">simulacro</tspan></text>
    <text id="Manejo_de_desastre:_Medidas_implementadas_y_recursos_suficiente_para_atender_la_situación_presentada" data-name="Manejo de desastre: Medidas implementadas y recursos suficiente para atender la situación presentada" transform="translate(-10153.502 -8080.5)" fill="#fff" font-size="16" font-family="Roboto-Regular, Roboto"><tspan x="-72.02" y="17">Manejo de desastre: </tspan><tspan x="-30.664" y="41">Medidas </tspan><tspan x="-61.004" y="65">implementadas y </tspan><tspan x="-85.363" y="89">recursos suficiente para </tspan><tspan x="-69.875" y="113">atender la situación </tspan><tspan x="-40.039" y="137">presentada</tspan></text>
    <text id="Evaluación:_El_equipo_que_participo_define_las_fortalezas_y_debilidades_del_ejercicio" data-name="Evaluación: El equipo que participo define las fortalezas y debilidades del ejercicio" transform="translate(-9503.666 -8056.5)" fill="#fff" font-size="16" font-family="Roboto-Regular, Roboto"><tspan x="-74.996" y="17">Evaluación: El equipo </tspan><tspan x="-82.863" y="41">que participo define las </tspan><tspan x="-84.375" y="65">fortalezas y debilidades </tspan><tspan x="-42.512" y="89">del ejercicio</tspan></text>
    <text id="Identificación_de_amenazas_y_valoración_del_riesgo_medidas_de_intervención" data-name="Identificación de amenazas y valoración del riesgo, medidas de intervención" transform="translate(-10455.666 -8359.179)" fill="#fff" font-size="16" font-family="Roboto-Regular, Roboto"><tspan x="-58.699" y="17">Identificación de </tspan><tspan x="-81.234" y="41">amenazas y valoración </tspan><tspan x="-79.707" y="65">del riesgo, medidas de </tspan><tspan x="-43.617" y="89">intervención</tspan></text>
    <text id="Planeación:_Establecer_el_guión_de_la_situación_a_simular" data-name="Planeación: Establecer el guión de la situación a simular" transform="translate(-9795.734 -8348.873)" fill="#fff" font-size="16" font-family="Roboto-Regular, Roboto"><tspan x="-80.805" y="17">Planeación: Establecer </tspan><tspan x="-81.508" y="41">el guión de la situación </tspan><tspan x="-32.82" y="65">a simular</tspan></text>
    <text id="Asignación_de_roles_y_responsabilidades_estableciendo_la_jerarquía_para_el_control_de_la_emergencia" data-name="Asignación de roles y responsabilidades estableciendo la jerarquía para el control de la emergencia" transform="translate(-10153.502 -8372.041)" fill="#fff" font-size="16" font-family="Roboto-Regular, Roboto"><tspan x="-75.617" y="17">Asignación de roles y </tspan><tspan x="-65.063" y="41">responsabilidades </tspan><tspan x="-58.125" y="65">estableciendo la </tspan><tspan x="-83.816" y="89">jerarquía para el control </tspan><tspan x="-60.82" y="113">de la emergencia</tspan></text>
    <text id="Plan_de_mejora:_Establecer_acciones_que_mejoren_la_respuesta_ante_emergencias" data-name="Plan de mejora: Establecer acciones que mejoren la respuesta ante emergencias" transform="translate(-9503.666 -8376.178)" fill="#fff" font-size="16" font-family="Roboto-Regular, Roboto"><tspan x="-55.027" y="17">Plan de mejora: </tspan><tspan x="-71.426" y="41">Establecer acciones </tspan><tspan x="-52.531" y="65">que mejoren la </tspan><tspan x="-52.895" y="89">respuesta ante </tspan><tspan x="-45.941" y="113">emergencias</tspan></text>
  </g>
</svg>
