<svg xmlns="http://www.w3.org/2000/svg" width="1209.5" height="760" viewBox="0 0 1209.5 760">
  <g id="Grupo_138760" data-name="Grupo 138760" transform="translate(-196 -375)">
    <path id="Trazado_125387" data-name="Trazado 125387" d="M-12352.827-9061.961h913" transform="translate(12843.824 9893.461)" fill="none" stroke="#707070" stroke-width="3"/>
    <path id="Trazado_126255" data-name="Trazado 126255" d="M-12352.827-9061.961h35.09" transform="translate(13721.737 10147.563)" fill="none" stroke="#707070" stroke-width="3"/>
    <g id="Grupo_137394" data-name="Grupo 137394" transform="translate(16 352)">
      <rect id="Rectángulo_41487" data-name="Rectángulo 41487" width="295" height="82" rx="41" transform="translate(180 439)" fill="#5c22c3"/>
      <text id="Alistar_Documentos" data-name="Alistar Documentos" transform="translate(236 468)" fill="#fff" font-size="20" font-family="Roboto-Black, Roboto" font-weight="800"><tspan x="0" y="21">Alistar Documentos</tspan></text>
    </g>
    <g id="Grupo_138756" data-name="Grupo 138756">
      <rect id="Rectángulo_41663" data-name="Rectángulo 41663" width="200" height="314" rx="33" transform="translate(511 684)" fill="#ebe4f8"/>
      <text id="Tipos_de_Documentos" data-name="Tipos de Documentos" transform="translate(534 707.473)" fill="#12263f" font-size="20" font-family="Roboto-Black, Roboto" font-weight="800"><tspan x="0" y="21">Tipos de </tspan><tspan x="0" y="48">Documentos</tspan></text>
      <g id="Grupo_138755" data-name="Grupo 138755" transform="translate(-166.927 -3414.377)">
        <text id="Según_uso_Privados_o_públicos_._Según_formatos_iconográficos_textuales_virtuales_audiovisuales_o_sonoros_." data-name="Según uso (Privados o públicos).
Según formatos (iconográficos, textuales, virtuales, audiovisuales o sonoros)." transform="translate(733 4184.855)" fill="#12263f" font-size="16" font-family="Roboto-Regular, Roboto"><tspan x="0" y="17">Según uso </tspan><tspan x="0" y="41">(Privados o </tspan><tspan x="0" y="65">públicos).</tspan><tspan x="0" y="89">Según formatos </tspan><tspan x="0" y="113">(iconográficos, </tspan><tspan x="0" y="137">textuales, </tspan><tspan x="0" y="161">virtuales, </tspan><tspan x="0" y="185">audiovisuales o </tspan><tspan x="0" y="209">sonoros).</tspan></text>
        <path id="Trazado_126264" data-name="Trazado 126264" d="M-524.349,195.923l8.685,8.559-8.685,8.559" transform="translate(1237.275 3988.927)" fill="none" stroke="#a668c4" stroke-miterlimit="10" stroke-width="3"/>
        <path id="Trazado_126267" data-name="Trazado 126267" d="M-524.349,195.923l8.685,8.559-8.685,8.559" transform="translate(1237.275 4060.927)" fill="none" stroke="#a668c4" stroke-miterlimit="10" stroke-width="3"/>
      </g>
    </g>
    <g id="Grupo_138757" data-name="Grupo 138757">
      <rect id="Rectángulo_41662" data-name="Rectángulo 41662" width="199" height="314" rx="33" transform="translate(730 684)" fill="#ebe4f8"/>
      <text id="Instrumentos_de_Recolección" data-name="Instrumentos de Recolección" transform="translate(753.38 700.81)" fill="#12263f" font-size="20" font-family="Roboto-Black, Roboto" font-weight="800"><tspan x="0" y="21">Instrumentos de </tspan><tspan x="0" y="48">Recolección</tspan></text>
      <g id="Grupo_138754" data-name="Grupo 138754" transform="translate(49.573 -3419.377)">
        <text id="Entrevistas._Cuestionarios._Observación._Grupo_focal._Comunidades_en_línea." data-name="Entrevistas.
Cuestionarios.
Observación.
Grupo focal.
Comunidades en línea." transform="translate(733 4184.855)" fill="#12263f" font-size="16" font-family="Roboto-Regular, Roboto"><tspan x="0" y="17">Entrevistas.</tspan><tspan x="0" y="41">Cuestionarios.</tspan><tspan x="0" y="65">Observación.</tspan><tspan x="0" y="89">Grupo focal.</tspan><tspan x="0" y="113">Comunidades </tspan><tspan x="0" y="137">en línea.</tspan></text>
        <path id="Trazado_126264-2" data-name="Trazado 126264" d="M-524.349,195.923l8.685,8.559-8.685,8.559" transform="translate(1237.275 3988.927)" fill="none" stroke="#a668c4" stroke-miterlimit="10" stroke-width="3"/>
        <path id="Trazado_126265" data-name="Trazado 126265" d="M-524.349,195.923l8.685,8.559-8.685,8.559" transform="translate(1237.275 4014.927)" fill="none" stroke="#a668c4" stroke-miterlimit="10" stroke-width="3"/>
        <path id="Trazado_126266" data-name="Trazado 126266" d="M-524.349,195.923l8.685,8.559-8.685,8.559" transform="translate(1237.275 4037.927)" fill="none" stroke="#a668c4" stroke-miterlimit="10" stroke-width="3"/>
        <path id="Trazado_126267-2" data-name="Trazado 126267" d="M-524.349,195.923l8.685,8.559-8.685,8.559" transform="translate(1237.275 4060.927)" fill="none" stroke="#a668c4" stroke-miterlimit="10" stroke-width="3"/>
        <path id="Trazado_126268" data-name="Trazado 126268" d="M-524.349,195.923l8.685,8.559-8.685,8.559" transform="translate(1237.275 4084.927)" fill="none" stroke="#a668c4" stroke-miterlimit="10" stroke-width="3"/>
      </g>
    </g>
    <g id="Grupo_138759" data-name="Grupo 138759">
      <rect id="Rectángulo_41660" data-name="Rectángulo 41660" width="200" height="314" rx="33" transform="translate(1172 684)" fill="#ebe4f8"/>
      <text id="Capacitar_al_Encuestar" data-name="Capacitar al Encuestar" transform="translate(1195.942 709.924)" fill="#12263f" font-size="20" font-family="Roboto-Black, Roboto" font-weight="800"><tspan x="0" y="21">Capacitar al </tspan><tspan x="0" y="48">Encuestar</tspan></text>
      <text id="Capacitar_al_encuestador_de_acuerdo_a_características_del_estudio." data-name="Capacitar al encuestador de acuerdo a características del estudio." transform="translate(1195.942 765.5)" fill="#12263f" font-size="16" font-family="Roboto-Regular, Roboto"><tspan x="0" y="17">Capacitar al </tspan><tspan x="0" y="41">encuestador de </tspan><tspan x="0" y="65">acuerdo a </tspan><tspan x="0" y="89">características del </tspan></text>
    </g>
    <g id="Grupo_138758" data-name="Grupo 138758">
      <rect id="Rectángulo_41661" data-name="Rectángulo 41661" width="201" height="314" rx="33" transform="translate(951 684)" fill="#ebe4f8"/>
      <text id="Perfil_del_encuestado" data-name="Perfil del encuestado" transform="translate(974 707.385)" fill="#12263f" font-size="20" font-family="Roboto-Black, Roboto" font-weight="800"><tspan x="0" y="21">Perfil del </tspan><tspan x="0" y="48">encuestado</tspan></text>
      <text id="Seleccionar_el_perfil_ideal_para_el_encuestado." data-name="Seleccionar el perfil ideal para el encuestado." transform="translate(974 768.385)" fill="#12263f" font-size="16" font-family="Roboto-Regular, Roboto"><tspan x="0" y="17">Seleccionar el perfil </tspan><tspan x="0" y="41">ideal para el </tspan><tspan x="0" y="65">encuestado.</tspan></text>
    </g>
    <path id="Trazado_121919" data-name="Trazado 121919" d="M-12352.827-9061.961h913" transform="translate(12843.824 9571.461)" fill="none" stroke="#707070" stroke-width="3"/>
    <path id="Trazado_126254" data-name="Trazado 126254" d="M0,0H579.016" transform="translate(1404 507.985) rotate(90)" fill="none" stroke="#707070" stroke-width="3"/>
    <g id="Grupo_137398" data-name="Grupo 137398" transform="translate(16 47)">
      <rect id="Rectángulo_41487-2" data-name="Rectángulo 41487" width="295" height="82" rx="41" transform="translate(180 422)" fill="#5c22c3"/>
      <text id="Diseños_de_Instrumento" data-name="Diseños de Instrumento" transform="translate(217 451)" fill="#fff" font-size="20" font-family="Roboto-Black, Roboto" font-weight="800"><tspan x="0" y="21">Diseños de Instrumento</tspan></text>
    </g>
    <g id="Grupo_137407" data-name="Grupo 137407" transform="translate(-34 3)">
      <rect id="Rectángulo_41652" data-name="Rectángulo 41652" width="201" height="269" rx="33" transform="translate(764 372)" fill="#ebe4f8"/>
      <text id="Tipos_de_Investigación" data-name="Tipos de Investigación" transform="translate(789 396)" fill="#12263f" font-size="20" font-family="Roboto-Black, Roboto" font-weight="800"><tspan x="0" y="21">Tipos de </tspan><tspan x="0" y="48">Investigación</tspan></text>
      <g id="Grupo_138748" data-name="Grupo 138748" transform="translate(87 -3725.77)">
        <text id="Primaria._Secundaria._Cuantitativa._Cualitativa._Experimental._Motivacional._Descriptiva." data-name="Primaria.
Secundaria.
Cuantitativa.
Cualitativa.
Experimental.
Motivacional.
Descriptiva." transform="translate(733 4184.855)" fill="#12263f" font-size="16" font-family="Roboto-Regular, Roboto"><tspan x="0" y="17">Primaria.</tspan><tspan x="0" y="41">Secundaria.</tspan><tspan x="0" y="65">Cuantitativa.</tspan><tspan x="0" y="89">Cualitativa.</tspan><tspan x="0" y="113">Experimental.</tspan><tspan x="0" y="137">Motivacional.</tspan><tspan x="0" y="161">Descriptiva.</tspan></text>
        <path id="Trazado_126264-3" data-name="Trazado 126264" d="M-524.349,195.923l8.685,8.559-8.685,8.559" transform="translate(1237.275 3988.927)" fill="none" stroke="#a668c4" stroke-miterlimit="10" stroke-width="3"/>
        <path id="Trazado_126265-2" data-name="Trazado 126265" d="M-524.349,195.923l8.685,8.559-8.685,8.559" transform="translate(1237.275 4014.927)" fill="none" stroke="#a668c4" stroke-miterlimit="10" stroke-width="3"/>
        <path id="Trazado_126266-2" data-name="Trazado 126266" d="M-524.349,195.923l8.685,8.559-8.685,8.559" transform="translate(1237.275 4037.927)" fill="none" stroke="#a668c4" stroke-miterlimit="10" stroke-width="3"/>
        <path id="Trazado_126267-3" data-name="Trazado 126267" d="M-524.349,195.923l8.685,8.559-8.685,8.559" transform="translate(1237.275 4060.927)" fill="none" stroke="#a668c4" stroke-miterlimit="10" stroke-width="3"/>
        <path id="Trazado_126268-2" data-name="Trazado 126268" d="M-524.349,195.923l8.685,8.559-8.685,8.559" transform="translate(1237.275 4084.927)" fill="none" stroke="#a668c4" stroke-miterlimit="10" stroke-width="3"/>
        <path id="Trazado_126271" data-name="Trazado 126271" d="M-524.349,195.923l8.685,8.559-8.685,8.559" transform="translate(1237.275 4108.927)" fill="none" stroke="#a668c4" stroke-miterlimit="10" stroke-width="3"/>
        <path id="Trazado_126272" data-name="Trazado 126272" d="M-524.349,195.923l8.685,8.559-8.685,8.559" transform="translate(1237.275 4133.927)" fill="none" stroke="#a668c4" stroke-miterlimit="10" stroke-width="3"/>
      </g>
    </g>
    <g id="Grupo_137405" data-name="Grupo 137405" transform="translate(-130 3)">
      <rect id="Rectángulo_41654" data-name="Rectángulo 41654" width="199" height="269" rx="33" transform="translate(1302 372)" fill="#ebe4f8"/>
      <text id="Muestra_de_Recolección" data-name="Muestra de Recolección" transform="translate(1324.595 404.894)" fill="#12263f" font-size="20" font-family="Roboto-Black, Roboto" font-weight="800"><tspan x="0" y="21">Muestra de </tspan><tspan x="0" y="48">Recolección</tspan></text>
      <text id="Aleatoria_o_No_aleatoria." data-name="Aleatoria o No aleatoria." transform="translate(1326.103 460.337)" fill="#12263f" font-size="16" font-family="Roboto-Regular, Roboto"><tspan x="0" y="17">Aleatoria o No </tspan></text>
    </g>
    <g id="Grupo_137406" data-name="Grupo 137406" transform="translate(-74.165 3)">
      <rect id="Rectángulo_41653" data-name="Rectángulo 41653" width="201" height="269" rx="33" transform="translate(1025.165 372)" fill="#ebe4f8"/>
      <text id="Tipos_de_preguntas" data-name="Tipos de preguntas" transform="translate(1049.634 392.894)" fill="#12263f" font-size="20" font-family="Roboto-Black, Roboto" font-weight="800"><tspan x="0" y="21">Tipos de </tspan><tspan x="0" y="48">preguntas</tspan></text>
      <g id="Grupo_138753" data-name="Grupo 138753" transform="translate(347.165 -3730.657)">
        <text id="Cerradas._Abiertas._Objetivas._Indirectas._Retóricas._Reflexivas._Capciosas._" data-name="Cerradas.
Abiertas.
Objetivas.
Indirectas.
Retóricas.
Reflexivas.
Capciosas.             " transform="translate(733 4184.855)" fill="#12263f" font-size="16" font-family="Roboto-Regular, Roboto"><tspan x="0" y="17">Cerradas.</tspan><tspan x="0" y="41">Abiertas.</tspan><tspan x="0" y="65">Objetivas.</tspan><tspan x="0" y="89">Indirectas.</tspan><tspan x="0" y="113">Retóricas.</tspan><tspan x="0" y="137">Reflexivas.</tspan><tspan x="0" y="161" xml:space="preserve">Capciosas.             </tspan></text>
        <path id="Trazado_126264-4" data-name="Trazado 126264" d="M-524.349,195.923l8.685,8.559-8.685,8.559" transform="translate(1237.275 3988.927)" fill="none" stroke="#a668c4" stroke-miterlimit="10" stroke-width="3"/>
        <path id="Trazado_126265-3" data-name="Trazado 126265" d="M-524.349,195.923l8.685,8.559-8.685,8.559" transform="translate(1237.275 4014.927)" fill="none" stroke="#a668c4" stroke-miterlimit="10" stroke-width="3"/>
        <path id="Trazado_126266-3" data-name="Trazado 126266" d="M-524.349,195.923l8.685,8.559-8.685,8.559" transform="translate(1237.275 4037.927)" fill="none" stroke="#a668c4" stroke-miterlimit="10" stroke-width="3"/>
        <path id="Trazado_126267-4" data-name="Trazado 126267" d="M-524.349,195.923l8.685,8.559-8.685,8.559" transform="translate(1237.275 4060.927)" fill="none" stroke="#a668c4" stroke-miterlimit="10" stroke-width="3"/>
        <path id="Trazado_126268-3" data-name="Trazado 126268" d="M-524.349,195.923l8.685,8.559-8.685,8.559" transform="translate(1237.275 4084.927)" fill="none" stroke="#a668c4" stroke-miterlimit="10" stroke-width="3"/>
        <path id="Trazado_126273" data-name="Trazado 126273" d="M-524.349,195.923l8.685,8.559-8.685,8.559" transform="translate(1237.275 4108.927)" fill="none" stroke="#a668c4" stroke-miterlimit="10" stroke-width="3"/>
        <path id="Trazado_126274" data-name="Trazado 126274" d="M-524.349,195.923l8.685,8.559-8.685,8.559" transform="translate(1237.275 4132.927)" fill="none" stroke="#a668c4" stroke-miterlimit="10" stroke-width="3"/>
      </g>
    </g>
    <g id="Grupo_137408" data-name="Grupo 137408" transform="translate(16 3)">
      <rect id="Rectángulo_41651" data-name="Rectángulo 41651" width="199" height="269" rx="33" transform="translate(495 372)" fill="#ebe4f8"/>
      <text id="Seleccionar_los_componentes_de_los_instrumentos_de_recolección." data-name="Seleccionar los componentes de los instrumentos de recolección." transform="translate(517 473.06)" fill="#12263f" font-size="16" font-family="Roboto-Regular, Roboto"><tspan x="0" y="17">Seleccionar los </tspan><tspan x="0" y="41">componentes de los </tspan><tspan x="0" y="65">instrumentos de </tspan></text>
      <text id="Componentes_de_Instrumentos_de_recolección" data-name="Componentes de Instrumentos de recolección" transform="translate(517 389.928)" fill="#12263f" font-size="20" font-family="Roboto-Black, Roboto" font-weight="800"><tspan x="0" y="21">Componentes de </tspan><tspan x="0" y="48">Instrumentos de </tspan><tspan x="0" y="75">recolección</tspan></text>
    </g>
    <g id="Rectángulo_41489" data-name="Rectángulo 41489" transform="translate(511 1040)" fill="#ebe4f8" stroke="#5c22c3" stroke-width="3">
      <rect width="860" height="95" rx="47.5" stroke="none"/>
      <rect x="1.5" y="1.5" width="857" height="92" rx="46" fill="none"/>
    </g>
    <text id="Planificar_la_Recolección_de_Información" data-name="Planificar la Recolección de Información" transform="translate(511 1075)" fill="#12263f" font-size="20" font-family="Roboto-Black, Roboto" font-weight="800"><tspan x="-182.861" y="21">Planificar la Recolección de Información</tspan></text>
  </g>
</svg>
