<svg xmlns="http://www.w3.org/2000/svg" width="75.801" height="101.642" viewBox="0 0 75.801 101.642">
  <g id="Grupo_138765" data-name="Grupo 138765" transform="translate(-826.307 -611.759)">
    <g id="Grupo_132509" data-name="Grupo 132509" transform="translate(826.307 611.759)">
      <g id="Grupo_132492" data-name="Grupo 132492" transform="translate(0.878 0.876)">
        <g id="Grupo_132480" data-name="Grupo 132480" transform="translate(14.53 65.273)">
          <path id="Trazado_122567" data-name="Trazado 122567" d="M898.8,692.1a4.5,4.5,0,0,1-1.431,4.177c-6.953,6.119-14.8,9.462-26.809,7.92a51,51,0,0,1-18.991-6.52l-11.709-6.759c2.521-5.632,6.62-9.979,10.041-17.438q.429.649.785,1.26a20.517,20.517,0,0,1,2.575,8.506c8.72-2.069,19.861-5.759,26.042-13.291,6.265,6.094,14.886,7.532,18.479,18.168A28.276,28.276,0,0,1,898.8,692.1Z" transform="translate(-839.863 -669.96)" fill="#fff"/>
        </g>
        <g id="Grupo_132481" data-name="Grupo 132481" transform="translate(37.527 4.842)">
          <path id="Trazado_122568" data-name="Trazado 122568" d="M895.022,695.389c-3.593-10.636-12.214-12.074-18.479-18.168a21.026,21.026,0,0,1-5.37-8.628,36.2,36.2,0,0,1-1.7-9.195v-.005a10.027,10.027,0,0,0,5.815-5.3c-.1-.2-.213-.4-.328-.6a18.5,18.5,0,0,0-2.612-3.605c1.558-7.928-2.4-24.379-12.245-33.1,3.91.042,7.441.694,10.047,2.2,14.68,8.475,8.969,20.7,10.552,24.769,2.52,6.5,7.647,2.216,5.79,14.217-1.48,9.553,14.028,10.082,9.188,18.467-.731,1.26-1.85,2.307-2.612,3.629-3.623,6.265,6.228,8.031,2.478,14.528-.011.024-.031.049-.042.073-.159.268-.317.506-.469.718Z" transform="translate(-860.097 -616.79)" fill="#64b5f6"/>
        </g>
        <g id="Grupo_132482" data-name="Grupo 132482" transform="translate(39.895 34.823)">
          <path id="Trazado_122569" data-name="Trazado 122569" d="M874.669,649.891c.116.2.225.4.328.6a10.026,10.026,0,0,1-5.815,5.3,6.122,6.122,0,0,1-1.919.274,5.043,5.043,0,0,1-1.966-.432c-2.447-1.1-3.689-4.177-2.862-7.757a11.2,11.2,0,0,1,2.381-4.706,15.289,15.289,0,0,1,3.391.669c.012.889-.012,1.772-.085,2.637,0,.06-1.485,5.766,1.669,3.945,1.114-.64,1.868-2.107,2.265-4.135A18.5,18.5,0,0,1,874.669,649.891Z" transform="translate(-862.181 -643.169)" fill="#fff"/>
        </g>
        <g id="Grupo_132483" data-name="Grupo 132483" transform="translate(18.615)">
          <path id="Trazado_122570" data-name="Trazado 122570" d="M862.369,617.372c9.846,8.719,13.8,25.17,12.245,33.1-.4,2.028-1.151,3.495-2.265,4.135-3.154,1.821-1.669-3.885-1.669-3.945.073-.865.1-1.748.085-2.637-.14-11.4-6.826-24.446-15.18-30.2h-.006c-.457-.316-.919-.614-1.388-.882-4.11-2.36-7.855-2.533-10.735-.883l4.195-2.423c2.88-1.663,6.643-1.5,10.759.871A24.582,24.582,0,0,1,862.369,617.372Z" transform="translate(-843.458 -612.53)" fill="#fff"/>
        </g>
        <g id="Grupo_132484" data-name="Grupo 132484" transform="translate(24.57 56.645)">
          <path id="Trazado_122571" data-name="Trazado 122571" d="M872.73,662.369A21.032,21.032,0,0,0,878.1,671c-6.181,7.532-17.322,11.221-26.042,13.291a20.518,20.518,0,0,0-2.575-8.506q-.354-.612-.785-1.26c.043-.085.079-.176.121-.261C856.521,673.262,865.874,669.845,872.73,662.369Z" transform="translate(-848.697 -662.369)" fill="#fff"/>
        </g>
        <g id="Grupo_132485" data-name="Grupo 132485" transform="translate(5.277 5.292)">
          <path id="Trazado_122572" data-name="Trazado 122572" d="M872.369,647.387a15.276,15.276,0,0,0-3.392-.669c-2.868-.311-6.46-.286-11.344-.945a24.633,24.633,0,0,1-7.86-2.32c-4.335-2.5-7.223-7.388-11.617-9.93-.3-.176-.622-.341-.943-.5-2.448,4.7-3.221,7.635-3.319,14-2.441-6.886-3.361-14.388.116-20.4.919-1.6,3.513-3.343,7.008-4.92a61.432,61.432,0,0,1,16.165-4.518h.006C865.542,622.94,872.229,635.982,872.369,647.387Z" transform="translate(-831.722 -617.186)" fill="#64b5f6"/>
        </g>
        <g id="Grupo_132486" data-name="Grupo 132486" transform="translate(23.828 56.643)">
          <path id="Trazado_122573" data-name="Trazado 122573" d="M853.761,662.881a3.811,3.811,0,1,1-5.205,1.393A3.808,3.808,0,0,1,853.761,662.881Z" transform="translate(-848.044 -662.368)" fill="#373a3a"/>
        </g>
        <g id="Grupo_132487" data-name="Grupo 132487" transform="translate(14.573 2.438)">
          <path id="Trazado_122574" data-name="Trazado 122574" d="M854.679,616.647c.468.268.931.566,1.388.882a61.431,61.431,0,0,0-16.165,4.518c.853-3.038,2.661-5.492,4.043-6.283C846.824,614.114,850.569,614.286,854.679,616.647Z" transform="translate(-839.901 -614.675)" fill="#373a3a"/>
        </g>
        <g id="Grupo_132488" data-name="Grupo 132488" transform="translate(7.449 21.129)">
          <path id="Trazado_122575" data-name="Trazado 122575" d="M857.129,672.353a3.813,3.813,0,1,0-5.212,1.395A3.808,3.808,0,0,0,857.129,672.353Zm-16-3.519c-4.318-3.215-7.472-10.272-7.5-23.7v-.006c.1-6.369.871-9.31,3.319-14,.322.159.639.324.943.5,4.394,2.543,7.282,7.427,11.617,9.93a24.643,24.643,0,0,0,7.86,2.32c4.884.658,8.476.633,11.344.944a11.191,11.191,0,0,0-2.381,4.707c-.828,3.58.415,6.66,2.862,7.757a5.042,5.042,0,0,0,1.966.432,6.122,6.122,0,0,0,1.918-.274v.006a36.2,36.2,0,0,0,1.7,9.195c-6.856,7.476-16.209,10.878-23.911,11.891l-.267.036c-.3-.1-4.458-1.211-2.6-7.465a13.052,13.052,0,0,1-2.667-.316A11.137,11.137,0,0,1,841.129,668.834Z" transform="translate(-833.633 -631.12)" fill="#dae0e5"/>
        </g>
        <g id="Grupo_132489" data-name="Grupo 132489" transform="translate(24.424 68.536)">
          <path id="Trazado_122576" data-name="Trazado 122576" d="M848.569,672.867l.267-.036c-.042.085-.078.176-.122.261C848.672,673.02,848.618,672.947,848.569,672.867Z" transform="translate(-848.569 -672.831)" fill="#fff"/>
        </g>
        <g id="Grupo_132490" data-name="Grupo 132490" transform="translate(0 58.843)">
          <path id="Trazado_122577" data-name="Trazado 122577" d="M851.5,674.032c.049.08.1.152.145.225-3.421,7.459-7.519,11.807-10.04,17.438l-12.536-7.239a3.984,3.984,0,0,1-1.937-4.116,22.891,22.891,0,0,1,2.417-7.659c2.6-4.505,7.4-6.8,12.415-8.3l.056-.073a11.137,11.137,0,0,0,4.213,1.948,65.4,65.4,0,0,0-3.843,12.877Z" transform="translate(-827.079 -664.303)" fill="#fff"/>
        </g>
        <g id="Grupo_132491" data-name="Grupo 132491" transform="translate(15.315 60.791)">
          <path id="Trazado_122578" data-name="Trazado 122578" d="M849.664,673.8l-9.109,5.1a65.412,65.412,0,0,1,3.843-12.877,13.06,13.06,0,0,0,2.667.316C845.206,672.586,849.359,673.694,849.664,673.8Z" transform="translate(-840.554 -666.017)" fill="#fff"/>
        </g>
      </g>
      <g id="Grupo_132508" data-name="Grupo 132508">
        <g id="Grupo_132493" data-name="Grupo 132493" transform="translate(0 47.448)">
          <path id="Trazado_122579" data-name="Trazado 122579" d="M877.951,707.7a44.434,44.434,0,0,1-5.649-.378,51.641,51.641,0,0,1-19.319-6.632l-24.245-14a4.882,4.882,0,0,1-2.363-5.025,23.734,23.734,0,0,1,2.523-7.951c3.013-5.221,8.817-7.469,12.922-8.706a.878.878,0,1,1,.507,1.682c-3.817,1.15-9.206,3.221-11.906,7.9a22.179,22.179,0,0,0-2.313,7.371,3.116,3.116,0,0,0,1.51,3.206l24.245,14a49.887,49.887,0,0,0,18.662,6.411c10.618,1.362,18.428-.944,26.117-7.71a3.608,3.608,0,0,0,1.147-3.356,27.675,27.675,0,0,0-.984-3.854c-2.311-6.817-6.718-9.665-11.385-12.68a42.828,42.828,0,0,1-6.875-5.141,22.085,22.085,0,0,1-5.59-8.975,36.9,36.9,0,0,1-1.749-9.416.878.878,0,1,1,1.753-.119,35.194,35.194,0,0,0,1.66,8.971,20.076,20.076,0,0,0,5.151,8.28,41.575,41.575,0,0,0,6.6,4.926c4.714,3.045,9.588,6.194,12.1,13.591a29.413,29.413,0,0,1,1.049,4.1,5.377,5.377,0,0,1-1.714,5C893.226,704.975,886.323,707.7,877.951,707.7Z" transform="translate(-826.307 -653.506)" fill="#373a3a"/>
        </g>
        <g id="Grupo_132494" data-name="Grupo 132494" transform="translate(31.321 47.284)">
          <path id="Trazado_122580" data-name="Trazado 122580" d="M854.744,667.285a.879.879,0,0,1-.3-1.7c6.915-2.553,10.856-8.7,11.12-11.426a.878.878,0,1,1,1.748.169c-.343,3.552-4.906,10.19-12.26,12.906A.894.894,0,0,1,854.744,667.285Z" transform="translate(-853.865 -653.362)" fill="#373a3a"/>
        </g>
        <g id="Grupo_132495" data-name="Grupo 132495" transform="translate(23.825 56.64)">
          <path id="Trazado_122581" data-name="Trazado 122581" d="M851.957,670.975a4.688,4.688,0,1,1,4.07-2.344A4.671,4.671,0,0,1,851.957,670.975Zm.007-7.624a2.941,2.941,0,0,0-2.542,1.468h0a2.932,2.932,0,0,0,1.073,4,2.932,2.932,0,1,0,1.47-5.474Zm-3.3,1.029h0Z" transform="translate(-847.269 -661.593)" fill="#373a3a"/>
        </g>
        <g id="Grupo_132496" data-name="Grupo 132496" transform="translate(5.266 5.29)">
          <path id="Trazado_122582" data-name="Trazado 122582" d="M834,648.012a.88.88,0,0,1-.828-.585c-3.036-8.562-2.974-15.673.184-21.136,1.241-2.163,4.713-4.065,7.407-5.28a61.956,61.956,0,0,1,16.409-4.589.879.879,0,0,1,.236,1.741,60.152,60.152,0,0,0-15.922,4.448c-3.423,1.543-5.832,3.205-6.608,4.556-2.889,5-2.905,11.617-.049,19.671a.879.879,0,0,1-.535,1.122A.854.854,0,0,1,834,648.012Z" transform="translate(-830.94 -616.413)" fill="#373a3a"/>
        </g>
        <g id="Grupo_132497" data-name="Grupo 132497" transform="translate(37.493 4.84)">
          <path id="Trazado_122583" data-name="Trazado 122583" d="M895.137,696.374a.868.868,0,0,1-.51-.165.878.878,0,0,1-.2-1.225c.139-.194.283-.41.427-.655l.033-.054c1.606-2.783.383-4.4-1.166-6.447-1.512-2-3.394-4.483-1.306-8.092a15.84,15.84,0,0,1,1.413-1.973,13.947,13.947,0,0,0,1.2-1.657c2.012-3.484.12-5.179-3.4-7.879-3.138-2.408-6.7-5.138-5.9-10.281,1.082-6.987-.219-7.91-2.02-9.188a9.1,9.1,0,0,1-3.721-4.578,12.834,12.834,0,0,1-.306-4.866c.256-5.66.606-13.414-9.867-19.46a19.819,19.819,0,0,0-9.612-2.08.907.907,0,0,1-.907-.881.85.85,0,0,1,.844-.876v.879l.019-.879c4.386.024,7.913.8,10.534,2.315,11.4,6.581,11,15.3,10.743,21.061a12.39,12.39,0,0,0,.188,4.151,7.4,7.4,0,0,0,3.1,3.78c2.48,1.759,3.9,3.371,2.739,10.889-.636,4.114,2.214,6.3,5.233,8.62,3.154,2.42,6.729,5.163,3.849,10.152a15.573,15.573,0,0,1-1.347,1.873,14.3,14.3,0,0,0-1.265,1.756c-1.5,2.6-.317,4.169,1.184,6.153,1.549,2.046,3.477,4.593,1.294,8.374l-.038.063c-.166.281-.333.538-.52.8A.877.877,0,0,1,895.137,696.374Z" transform="translate(-859.295 -616.017)" fill="#373a3a"/>
        </g>
        <g id="Grupo_132498" data-name="Grupo 132498" transform="translate(39.893 34.82)">
          <path id="Trazado_122584" data-name="Trazado 122584" d="M867.48,657.05h-.125a5.969,5.969,0,0,1-2.312-.509c-2.915-1.314-4.263-4.833-3.356-8.757a12.069,12.069,0,0,1,2.568-5.078.879.879,0,0,1,1.339,1.14,10.283,10.283,0,0,0-2.195,4.334c-.713,3.083.239,5.8,2.368,6.759a4.194,4.194,0,0,0,1.628.355,5.4,5.4,0,0,0,1.641-.237,9.14,9.14,0,0,0,5.077-4.45c-.033-.057-.065-.113-.1-.172A17.648,17.648,0,0,0,871.529,647a.879.879,0,0,1,1.267-1.217,19.278,19.278,0,0,1,2.74,3.775c.123.214.239.419.348.633a.875.875,0,0,1,.01.784,10.894,10.894,0,0,1-6.351,5.762A7.123,7.123,0,0,1,867.48,657.05Z" transform="translate(-861.407 -642.395)" fill="#373a3a"/>
        </g>
        <g id="Grupo_132499" data-name="Grupo 132499" transform="translate(18.614)">
          <path id="Trazado_122585" data-name="Trazado 122585" d="M871.391,655.95a1.614,1.614,0,0,1-.985-.32c-.934-.688-1.1-2.316-.494-4.977h0c.065-.785.091-1.608.08-2.514-.142-10.892-6.613-23.81-14.742-29.448-.023-.014-.044-.026-.065-.041-.458-.318-.9-.6-1.325-.843-3.672-2.108-7.174-2.422-9.861-.882a.879.879,0,0,1-.876-1.524l4.195-2.423c3.265-1.885,7.4-1.575,11.637.87a25.407,25.407,0,0,1,4.1,2.971c10.126,8.945,14.119,25.787,12.525,33.925-.466,2.38-1.371,3.971-2.689,4.727A3.066,3.066,0,0,1,871.391,655.95Zm.271-5.128a1.26,1.26,0,0,1-.037.219c-.458,2.024-.3,2.921-.189,3.146a1.643,1.643,0,0,0,.578-.239c.847-.485,1.483-1.709,1.842-3.542,1.514-7.725-2.306-23.739-11.964-32.271a23.671,23.671,0,0,0-3.815-2.765c-3.453-1.992-6.762-2.384-9.389-1.128a14.853,14.853,0,0,1,6.048,2.041c.445.257.914.552,1.391.882.021.013.043.025.063.04,8.72,6.006,15.408,19.294,15.559,30.912C871.763,649.088,871.734,649.974,871.663,650.821Z" transform="translate(-842.685 -611.759)" fill="#373a3a"/>
        </g>
        <g id="Grupo_132500" data-name="Grupo 132500" transform="translate(10.31 32.628)">
          <path id="Trazado_122586" data-name="Trazado 122586" d="M840.805,660.789a.889.889,0,0,1-.216-.027,4.891,4.891,0,0,1-2.646-2.213c-.651-1.161.073-2.268.773-3.341,1.265-1.934,3-4.585.032-9.871a9.442,9.442,0,0,0-2.982-3.263.879.879,0,1,1,.982-1.457,11.183,11.183,0,0,1,3.534,3.862c3.486,6.214,1.244,9.643-.093,11.691-.414.633-.842,1.288-.711,1.52a3.244,3.244,0,0,0,1.544,1.369.879.879,0,0,1-.216,1.73Z" transform="translate(-835.378 -640.467)" fill="#373a3a"/>
        </g>
        <g id="Grupo_132501" data-name="Grupo 132501" transform="translate(21.111 38.025)">
          <path id="Trazado_122587" data-name="Trazado 122587" d="M852.287,647.909a.887.887,0,0,1-.4-.1c-1.86-.951-3.682-.965-6.019-.677a.879.879,0,0,1-.215-1.744,11.428,11.428,0,0,1,7.034.857.879.879,0,0,1-.4,1.662Z" transform="translate(-844.881 -645.215)" fill="#373a3a"/>
        </g>
        <g id="Grupo_132502" data-name="Grupo 132502" transform="translate(21.324 43.089)">
          <path id="Trazado_122588" data-name="Trazado 122588" d="M850.459,652.95a10.2,10.2,0,0,1-4.972-1.654.878.878,0,1,1,.923-1.495,7.962,7.962,0,0,0,4.253,1.386.879.879,0,1,1,.093,1.755C850.656,652.948,850.557,652.95,850.459,652.95Z" transform="translate(-845.069 -649.67)" fill="#373a3a"/>
        </g>
        <g id="Grupo_132503" data-name="Grupo 132503" transform="translate(9.122 37.749)">
          <path id="Trazado_122589" data-name="Trazado 122589" d="M838.251,648.806a.863.863,0,0,1-.272-.043,8.844,8.844,0,0,1-2.913-1.882c-.14-.12-.28-.24-.417-.354a.879.879,0,1,1,1.126-1.349c.144.121.289.244.434.369a7.44,7.44,0,0,0,2.312,1.546.878.878,0,0,1-.27,1.714Z" transform="translate(-834.333 -644.972)" fill="#373a3a"/>
        </g>
        <g id="Grupo_132504" data-name="Grupo 132504" transform="translate(24.423 56.642)">
          <path id="Trazado_122590" data-name="Trazado 122590" d="M852.181,685.272a.878.878,0,0,1-.875-.8,19.586,19.586,0,0,0-2.459-8.143c-.224-.385-.472-.783-.758-1.217l-.074-.114c-.03-.044-.06-.09-.089-.136a.879.879,0,0,1,.634-1.331l.268-.036c5.4-.711,15.63-3.165,23.377-11.614a.879.879,0,0,1,1.3,1.188c-7.626,8.317-17.5,11.089-23.353,12.011.075.124.148.245.218.368a20.9,20.9,0,0,1,2.58,7.857c11.921-2.946,19.974-7.124,24.6-12.76a.879.879,0,0,1,1.359,1.115c-5,6.1-13.675,10.541-26.518,13.589A.824.824,0,0,1,852.181,685.272Z" transform="translate(-847.796 -661.595)" fill="#373a3a"/>
        </g>
        <g id="Grupo_132505" data-name="Grupo 132505" transform="translate(7.448 21.127)">
          <path id="Trazado_122591" data-name="Trazado 122591" d="M841.6,684.644a.877.877,0,0,1-.865-1.03,66.572,66.572,0,0,1,3.51-12.145,12.006,12.006,0,0,1-3.541-1.825c-5.185-3.876-7.825-12.087-7.848-24.405.1-6.363.832-9.458,3.418-14.418a.88.88,0,0,1,1.166-.383c.341.168.675.342,1,.527a29.4,29.4,0,0,1,6.032,5.141,27.322,27.322,0,0,0,5.585,4.791,23.751,23.751,0,0,0,7.558,2.213c3,.4,5.493.548,7.693.676,1.346.078,2.509.146,3.605.261a16.115,16.115,0,0,1,3.581.711.878.878,0,1,1-.564,1.664,14.587,14.587,0,0,0-3.2-.628c-1.056-.11-2.2-.177-3.522-.253-2.232-.131-4.762-.277-7.847-.692a26.086,26.086,0,0,1-8.183-2.431,29.038,29.038,0,0,1-5.96-5.082,28.078,28.078,0,0,0-5.657-4.848l-.125-.072c-2.137,4.269-2.731,7.085-2.818,12.829.021,11.727,2.424,19.466,7.142,22.991a10.312,10.312,0,0,0,3.869,1.792l.031.007a12.037,12.037,0,0,0,2.473.292.878.878,0,0,1,.824,1.129c-1.4,4.727.922,6.026,1.987,6.365a.906.906,0,0,1,.626.755.874.874,0,0,1-.426.861l-9.109,5.1A.877.877,0,0,1,841.6,684.644Zm4.372-12.755a64.181,64.181,0,0,0-3.126,10.172l6.009-3.362c-1.559-1.166-2.566-3.324-1.861-6.677C846.651,671.99,846.311,671.946,845.977,671.889Z" transform="translate(-832.86 -630.347)" fill="#373a3a"/>
        </g>
        <g id="Grupo_132506" data-name="Grupo 132506" transform="translate(14.529 68.533)">
          <path id="Trazado_122592" data-name="Trazado 122592" d="M839.969,691.516a.88.88,0,0,1-.8-1.239,60.745,60.745,0,0,1,4.573-7.976,84.034,84.034,0,0,0,5.476-9.482l.044-.094c.027-.061.055-.122.084-.182a.879.879,0,1,1,1.571.789l-.115.248a86.6,86.6,0,0,1-5.582,9.671A59.556,59.556,0,0,0,840.771,691,.88.88,0,0,1,839.969,691.516Z" transform="translate(-839.09 -672.058)" fill="#373a3a"/>
        </g>
        <g id="Grupo_132507" data-name="Grupo 132507" transform="translate(14.571 3.524)">
          <path id="Trazado_122593" data-name="Trazado 122593" d="M840.007,622.9a.906.906,0,0,1-.238-.033.879.879,0,0,1-.609-1.083c.839-2.988,2.67-5.787,4.453-6.809a.879.879,0,1,1,.873,1.525c-1.165.667-2.834,2.912-3.634,5.758A.879.879,0,0,1,840.007,622.9Z" transform="translate(-839.127 -614.859)" fill="#373a3a"/>
        </g>
      </g>
    </g>
  </g>
</svg>
