<svg xmlns="http://www.w3.org/2000/svg" width="121.265" height="119.74" viewBox="0 0 121.265 119.74">
  <g id="Grupo_138764" data-name="Grupo 138764" transform="translate(-892.494 -143.603)">
    <g id="Grupo_138762" data-name="Grupo 138762" transform="translate(892.494 143.603)">
      <path id="Trazado_121497" data-name="Trazado 121497" d="M780.278,109.975c-.7-.4-.818-.551.019-2.363.65-1.408,1.86-4.029-1.041-5.7-2.27-1.311-5.1-.876-7.833-.455-2.4.368-4.661.718-6.139-.137a1.3,1.3,0,1,0-1.3,2.248c2.269,1.311,5.1.876,7.832.455,2.4-.368,4.661-.717,6.141.138.7.4.817.551-.019,2.363-.65,1.408-1.86,4.028,1.04,5.7,2.267,1.311,5.1.876,7.831.456,2.4-.37,4.662-.717,6.143.137.7.4.817.551-.021,2.362-.652,1.408-1.864,4.029,1.037,5.7,2.271,1.311,5.1.876,7.837.454,2.4-.37,4.659-.718,6.135.133.7.4.819.552-.02,2.365-.651,1.408-1.863,4.028,1.038,5.7a7.374,7.374,0,0,0,3.764.877,27.254,27.254,0,0,0,4.073-.423c2.4-.369,4.658-.717,6.136.134a1.3,1.3,0,0,0,1.3-2.25c-2.269-1.307-5.1-.871-7.829-.45-2.4.37-4.663.719-6.142-.136-.7-.4-.819-.553.02-2.365.651-1.408,1.863-4.028-1.039-5.7-2.269-1.307-5.095-.872-7.828-.45-2.4.369-4.664.718-6.144-.137-.7-.4-.817-.55.021-2.362.651-1.408,1.864-4.029-1.038-5.7-2.27-1.311-5.1-.876-7.835-.455C784.019,110.482,781.755,110.83,780.278,109.975Z" transform="translate(-752.494 -73.603)" fill="#fef536"/>
      <path id="Trazado_121498" data-name="Trazado 121498" d="M783.408,83.135c-2.269-1.31-5.1-.875-7.835-.455-2.4.369-4.66.717-6.138-.138-.7-.4-.818-.551.019-2.363.65-1.407,1.86-4.028-1.041-5.7-2.27-1.311-5.1-.876-7.832-.455-2.4.368-4.661.717-6.14-.137a1.3,1.3,0,0,0-1.3,2.248c2.27,1.311,5.1.876,7.833.455,2.4-.369,4.66-.717,6.14.137.7.4.818.551-.019,2.363-.65,1.408-1.86,4.029,1.04,5.7,2.267,1.311,5.095.876,7.831.455,2.4-.368,4.663-.717,6.143.138.7.4.817.55-.021,2.362-.651,1.408-1.864,4.029,1.038,5.7,2.271,1.311,5.1.875,7.836.453,2.4-.369,4.659-.718,6.136.133.7.4.818.553-.02,2.365-.652,1.408-1.864,4.028,1.037,5.7a7.376,7.376,0,0,0,3.764.877,27.242,27.242,0,0,0,4.073-.424c2.4-.369,4.658-.718,6.137.134a1.3,1.3,0,1,0,1.3-2.249c-2.269-1.307-5.1-.872-7.828-.45-2.4.369-4.663.718-6.143-.136-.7-.4-.819-.553.02-2.365.651-1.408,1.863-4.028-1.039-5.7-2.268-1.307-5.095-.872-7.828-.451-2.4.37-4.664.719-6.144-.136-.7-.4-.817-.551.021-2.362C785.1,87.428,786.31,84.807,783.408,83.135Z" transform="translate(-752.494 -73.603)" fill="#3a3a3a"/>
    </g>
    <g id="Grupo_138763" data-name="Grupo 138763" transform="translate(135.902 -676.546)">
      <g id="Grupo_132577" data-name="Grupo 132577" transform="translate(780.097 846.415)">
        <g id="Grupo_132557" data-name="Grupo 132557" transform="translate(0.848 0.852)">
          <g id="Grupo_132547" data-name="Grupo 132547" transform="translate(85.37 63.351)">
            <path id="Trazado_122628" data-name="Trazado 122628" d="M825.182,877.913c3.326,1.922,4.988,4.44,4.988,6.956,0,2.378-1.487,4.755-4.458,6.632a93.623,93.623,0,0,0-6.235-15.762A20.742,20.742,0,0,1,825.182,877.913Z" transform="translate(-819.476 -875.739)" fill="#5c22c3"/>
          </g>
          <g id="Grupo_132548" data-name="Grupo 132548" transform="translate(61.996 72.481)">
            <path id="Trazado_122629" data-name="Trazado 122629" d="M809.464,882.63a10.492,10.492,0,0,0,4.324,4.23c6.654,3.845,17.443,3.853,24.092,0,.18-.105.359-.21.53-.32,2.956-1.9,4.458-4.254,4.458-6.632v9.474c0,2.518-1.666,5.036-4.988,6.958-6.653,3.838-17.439,3.838-24.092,0-3.328-1.922-4.988-4.44-4.988-6.958V883.22C809.01,883.02,809.231,882.83,809.464,882.63Z" transform="translate(-808.8 -879.909)" fill="#ba68c8"/>
          </g>
          <g id="Grupo_132549" data-name="Grupo 132549" transform="translate(44.343 35.817)">
            <path id="Trazado_122630" data-name="Trazado 122630" d="M809.442,865.569c.611,1.235,1.193,2.5,1.73,3.753,1.09,2.511,2.016,4.939,2.686,6.833.431,1.23-.256,1.971-1.259,1.388l-10.47-6.043c-1.007-.582-1.695-2.115-1.259-2.844l.046-.081a23.851,23.851,0,0,1,4.366-5.412,6.708,6.708,0,0,0,2.08,2,2.673,2.673,0,0,0,2.08.4Z" transform="translate(-800.737 -863.163)" fill="#5c22c3"/>
          </g>
          <g id="Grupo_132550" data-name="Grupo 132550" transform="translate(47.495 29.33)">
            <path id="Trazado_122631" data-name="Trazado 122631" d="M807.729,869.087a2.673,2.673,0,0,1-2.08-.4,6.707,6.707,0,0,1-2.08-2,7.39,7.39,0,0,1-1.392-4.009c0-2.213,1.554-3.111,3.472-2a7.676,7.676,0,0,1,3.472,6.012C809.122,868,808.572,868.848,807.729,869.087Z" transform="translate(-802.177 -860.2)" fill="#fff"/>
          </g>
          <g id="Grupo_132551" data-name="Grupo 132551" transform="translate(36.229 6.493)">
            <path id="Trazado_122632" data-name="Trazado 122632" d="M805.738,852.17a102.621,102.621,0,0,1,4.412,10.586c.436,1.235-.252,1.97-1.259,1.388l-10.47-6.043c-1-.582-1.69-2.115-1.259-2.844a23.824,23.824,0,0,1,4.416-5.487h.007a6.618,6.618,0,0,0,2.073,2,2.674,2.674,0,0,0,2.08.4Z" transform="translate(-797.031 -849.77)" fill="#ba68c8"/>
          </g>
          <g id="Grupo_132552" data-name="Grupo 132552" transform="translate(39.383)">
            <path id="Trazado_122633" data-name="Trazado 122633" d="M804.024,855.69a2.674,2.674,0,0,1-2.08-.4,6.621,6.621,0,0,1-2.073-2,7.359,7.359,0,0,1-1.4-4.016c0-2.213,1.557-3.111,3.472-2a7.67,7.67,0,0,1,3.473,6.012C805.417,854.607,804.87,855.452,804.024,855.69Z" transform="translate(-798.472 -846.804)" fill="#fff"/>
          </g>
          <g id="Grupo_132553" data-name="Grupo 132553" transform="translate(4.193 70.885)">
            <path id="Trazado_122634" data-name="Trazado 122634" d="M804.865,888.409a5.118,5.118,0,0,1-3.676,1.5c-5.191,0-6.752-3.921-15.661-3.921-.245,0-.495,0-.74.006a2.328,2.328,0,0,1-2.312-2.908c.733-2.778,2.673-3.9,6.868-3.9a21.5,21.5,0,0,1,3.433.287h0a41.247,41.247,0,0,1,7.127,1.933l.541.193a6.144,6.144,0,0,0-1.975,1.038,2.194,2.194,0,0,0,.974,3.816A25.184,25.184,0,0,1,804.865,888.409Z" transform="translate(-782.399 -879.18)" fill="#fff"/>
          </g>
          <g id="Grupo_132554" data-name="Grupo 132554" transform="translate(3.126 36.37)">
            <path id="Trazado_122635" data-name="Trazado 122635" d="M812.956,866.65a52.54,52.54,0,0,0,10.352,1.624l-.046.081c-.436.729.252,2.262,1.259,2.844l10.47,6.043c1,.582,1.69-.158,1.259-1.388-.67-1.894-1.6-4.322-2.686-6.833h.006c10.93,1.147,21.859,4.561,30.582,21.375h0a93.639,93.639,0,0,1,6.235,15.762c-.169.109-.35.215-.53.32-6.649,3.853-17.439,3.845-24.092,0a10.493,10.493,0,0,1-4.324-4.23c-.232.2-.453.392-.664.589-5.476,5.108-3.991,8.979-11.827,8.979-1.765,0-2.5-.186-4.7-.186a36.706,36.706,0,0,0-4.812.326,1.694,1.694,0,0,1-1.66-.788,9.925,9.925,0,0,1-2.605.379c-2.614,0-5.673-2.417-9.73-4.387a25.194,25.194,0,0,0-5.417-1.962,2.194,2.194,0,0,1-.974-3.816,6.144,6.144,0,0,1,1.975-1.038l-.541-.193a41.272,41.272,0,0,0-7.127-1.933h0c-3.661-2.535-7.61-5.467-10.6-7.738a2.137,2.137,0,0,1,.512-3.693,10.816,10.816,0,0,1,3.829-.736c3.4,0,7.573,2.739,10.608,5.117,20.8-7.674,7.586-5.728,22.3-9.165-.519-2.557-1.434-5.058-3.661-6.461-3.146-1.988-14.641-3.356-14.641-8.834a3.173,3.173,0,0,1,3.49-3.291C807.921,863.416,810.287,865.886,812.956,866.65Z" transform="translate(-781.912 -863.416)" fill="#fff"/>
          </g>
          <g id="Grupo_132555" data-name="Grupo 132555" transform="translate(0 26.279)">
            <path id="Trazado_122636" data-name="Trazado 122636" d="M793.6,871.792c.438,1.237-.25,1.975-1.259,1.393l-10.47-6.047c-1-.576-1.69-2.109-1.259-2.844a23.875,23.875,0,0,1,4.416-5.487,6.756,6.756,0,0,0,2.08,2,2.675,2.675,0,0,0,2.08.4A102.609,102.609,0,0,1,793.6,871.792Z" transform="translate(-780.484 -858.807)" fill="#fef536"/>
          </g>
          <g id="Grupo_132556" data-name="Grupo 132556" transform="translate(3.155 19.787)">
            <path id="Trazado_122637" data-name="Trazado 122637" d="M785.4,856.315a7.681,7.681,0,0,1,3.475,6.019c0,1.316-.55,2.161-1.395,2.4a2.675,2.675,0,0,1-2.08-.4,6.758,6.758,0,0,1-2.08-2,7.427,7.427,0,0,1-1.392-4.016C781.925,856.112,783.482,855.207,785.4,856.315Z" transform="translate(-781.925 -855.842)" fill="#fff"/>
          </g>
        </g>
        <g id="Grupo_132576" data-name="Grupo 132576">
          <g id="Grupo_132558" data-name="Grupo 132558" transform="translate(54.783 41.978)">
            <path id="Trazado_122638" data-name="Trazado 122638" d="M836.55,888.663a.847.847,0,0,1-.753-.458c-8.574-16.528-19.447-19.826-29.919-20.924a.849.849,0,0,1,.177-1.688c10.945,1.149,22.3,4.589,31.248,21.831a.848.848,0,0,1-.364,1.143A.834.834,0,0,1,836.55,888.663Z" transform="translate(-805.118 -865.588)" fill="#373a3a"/>
          </g>
          <g id="Grupo_132559" data-name="Grupo 132559" transform="translate(85.371 63.355)">
            <path id="Trazado_122639" data-name="Trazado 122639" d="M826.172,892.809a.849.849,0,0,1-.812-.6,93.527,93.527,0,0,0-6.176-15.617.85.85,0,1,1,1.508-.782,95.405,95.405,0,0,1,6.292,15.9.848.848,0,0,1-.565,1.057A.819.819,0,0,1,826.172,892.809Z" transform="translate(-819.089 -875.352)" fill="#373a3a"/>
          </g>
          <g id="Grupo_132560" data-name="Grupo 132560" transform="translate(3.127 36.373)">
            <path id="Trazado_122640" data-name="Trazado 122640" d="M793.815,899.526a.835.835,0,0,1-.482-.151c-4.129-2.859-8.432-6.089-10.628-7.759a2.989,2.989,0,0,1-1.15-2.816,2.918,2.918,0,0,1,1.874-2.347,11.642,11.642,0,0,1,4.129-.788c2.818,0,6.435,1.682,10.757,5.005,10.061-3.735,11.779-5.1,12.813-5.925,1.145-.909,1.69-1.342,8.326-2.916-.628-2.57-1.6-4.162-3.1-5.11a23.336,23.336,0,0,0-4.3-1.64c-4.784-1.533-10.737-3.442-10.737-7.91a4.018,4.018,0,0,1,4.339-4.14,10.238,10.238,0,0,1,4.99,1.824,14,14,0,0,0,3,1.443,52.218,52.218,0,0,0,10.185,1.6.848.848,0,1,1-.129,1.69,53.736,53.736,0,0,1-10.52-1.655,15.391,15.391,0,0,1-3.387-1.6,8.866,8.866,0,0,0-4.142-1.6,2.391,2.391,0,0,0-2.643,2.443c0,3.232,5.526,5,9.559,6.295a23.338,23.338,0,0,1,4.688,1.822c2.66,1.677,3.556,4.626,4.037,7.011a.847.847,0,0,1-.637.994c-7.041,1.644-7.49,2-8.473,2.785-1.2.954-3.017,2.4-13.723,6.349a.85.85,0,0,1-.817-.127c-4.125-3.229-7.613-4.935-10.087-4.935a9.951,9.951,0,0,0-3.529.679,1.239,1.239,0,0,0-.795,1,1.281,1.281,0,0,0,.495,1.222c2.187,1.662,6.468,4.874,10.568,7.715a.848.848,0,0,1-.484,1.546Z" transform="translate(-781.525 -863.028)" fill="#373a3a"/>
          </g>
          <g id="Grupo_132561" data-name="Grupo 132561" transform="translate(4.192 70.89)">
            <path id="Trazado_122641" data-name="Trazado 122641" d="M801.65,891.216a13.062,13.062,0,0,1-5.951-1.649,20.083,20.083,0,0,0-9.71-2.273c-.239,0-.482,0-.72,0a3.175,3.175,0,0,1-3.153-3.969c.841-3.181,3.14-4.536,7.689-4.536a22.129,22.129,0,0,1,3.536.291l.035,0a42.511,42.511,0,0,1,7.273,1.97l.545.195a.848.848,0,1,1-.567,1.6l-.539-.19a40.929,40.929,0,0,0-6.949-1.894l-.037,0a20.719,20.719,0,0,0-3.3-.274c-4.318,0-5.515,1.25-6.049,3.271a1.483,1.483,0,0,0,1.474,1.844c.252-.007.508-.007.76-.007a21.825,21.825,0,0,1,10.43,2.432,11.393,11.393,0,0,0,5.231,1.489,4.274,4.274,0,0,0,3.1-1.27.848.848,0,1,1,1.156,1.241A5.927,5.927,0,0,1,801.65,891.216Z" transform="translate(-782.011 -878.793)" fill="#373a3a"/>
          </g>
          <g id="Grupo_132562" data-name="Grupo 132562" transform="translate(19.487 69.672)">
            <path id="Trazado_122642" data-name="Trazado 122642" d="M806.747,894.767c-2.006,0-4.116-1.193-6.562-2.575-1.117-.631-2.273-1.283-3.538-1.9a24.372,24.372,0,0,0-5.237-1.9,3.081,3.081,0,0,1-2.334-2.327,2.943,2.943,0,0,1,1.018-2.975,7.073,7.073,0,0,1,2.192-1.167.979.979,0,0,1,.136-.042,11.368,11.368,0,0,1,3.385-.464,15.569,15.569,0,0,1,7.337,1.8,6.976,6.976,0,0,0,2.884.917c1.281,0,4.011-1.876,6.207-3.383,1.353-.931,2.634-1.808,3.746-2.415a.848.848,0,1,1,.81,1.489c-1.033.565-2.279,1.419-3.595,2.323-2.757,1.894-5.362,3.682-7.168,3.682a8.377,8.377,0,0,1-3.606-1.079,13.934,13.934,0,0,0-6.614-1.64,9.634,9.634,0,0,0-2.938.405l-.05.015a5.214,5.214,0,0,0-1.662.88,1.229,1.229,0,0,0-.427,1.268,1.4,1.4,0,0,0,1.057,1.057,25.89,25.89,0,0,1,5.6,2.027c1.314.637,2.544,1.333,3.632,1.949,2.235,1.263,4.167,2.354,5.725,2.354a9.082,9.082,0,0,0,2.38-.348.848.848,0,1,1,.451,1.635A10.738,10.738,0,0,1,806.747,894.767Z" transform="translate(-788.997 -878.237)" fill="#373a3a"/>
          </g>
          <g id="Grupo_132563" data-name="Grupo 132563" transform="translate(21.701 66.263)">
            <path id="Trazado_122643" data-name="Trazado 122643" d="M790.857,885.223a.849.849,0,0,1-.239-1.664A45.6,45.6,0,0,0,798.5,880.1a50.927,50.927,0,0,1,7.538-3.38.848.848,0,0,1,.523,1.614,49.625,49.625,0,0,0-7.282,3.275,46.938,46.938,0,0,1-8.188,3.578A.8.8,0,0,1,790.857,885.223Z" transform="translate(-790.008 -876.68)" fill="#373a3a"/>
          </g>
          <g id="Grupo_132564" data-name="Grupo 132564" transform="translate(38.748 66.065)">
            <path id="Trazado_122644" data-name="Trazado 122644" d="M800.326,897.149a2.549,2.549,0,0,1-2.159-1.2,2.473,2.473,0,0,1-.337-1.73c.832-4.823,5.4-5.222,10.741-5.583l.278-.482a33.512,33.512,0,0,1,3.35-5.069c-.129-.013-.271-.022-.427-.033a4.331,4.331,0,0,1-2.724-.891.848.848,0,1,1,1.073-1.314,2.746,2.746,0,0,0,1.758.512,4,4,0,0,1,2.327.683.85.85,0,0,1,.083,1.287A26.022,26.022,0,0,0,810.321,889l-.51.88a.858.858,0,0,1-.677.418l-.125.007c-5.675.381-8.913.764-9.506,4.2a.768.768,0,0,0,.105.545.846.846,0,0,0,.828.394,37.493,37.493,0,0,1,4.924-.335c1.193,0,1.951.053,2.686.1.624.044,1.211.083,2.016.083,4.712,0,5.633-1.39,7.3-3.913a24.644,24.644,0,0,1,3.945-4.837c.219-.206.449-.407.692-.615a34.18,34.18,0,0,1,7.777-4.806,19.885,19.885,0,0,0,5.933-4.269.849.849,0,1,1,1.239,1.161,21.6,21.6,0,0,1-6.452,4.644,32.555,32.555,0,0,0-7.4,4.563c-.223.191-.433.374-.635.563a22.946,22.946,0,0,0-3.689,4.534c-1.8,2.713-3.1,4.672-8.718,4.672-.863,0-1.48-.042-2.132-.088-.707-.048-1.436-.1-2.57-.1a36.023,36.023,0,0,0-4.7.319A2.426,2.426,0,0,1,800.326,897.149Z" transform="translate(-797.794 -876.59)" fill="#373a3a"/>
          </g>
          <g id="Grupo_132565" data-name="Grupo 132565" transform="translate(62.66 63.356)">
            <path id="Trazado_122645" data-name="Trazado 122645" d="M825.941,896a25.507,25.507,0,0,1-12.478-2.982,11.416,11.416,0,0,1-4.659-4.589.849.849,0,0,1,1.522-.753,9.724,9.724,0,0,0,3.985,3.871c6.417,3.709,16.843,3.709,23.243,0,.171-.1.339-.2.5-.3,2.623-1.688,4.068-3.79,4.068-5.918,0-2.31-1.62-4.521-4.563-6.22a19.754,19.754,0,0,0-5.452-2.078.848.848,0,0,1,.166-1.679h.007a.775.775,0,0,1,.188.022,21.419,21.419,0,0,1,5.94,2.266c3.488,2.016,5.41,4.747,5.41,7.689,0,2.726-1.721,5.333-4.845,7.346-.182.116-.372.228-.565.339A25.421,25.421,0,0,1,825.941,896Z" transform="translate(-808.716 -875.352)" fill="#373a3a"/>
          </g>
          <g id="Grupo_132566" data-name="Grupo 132566" transform="translate(61.997 75.794)">
            <path id="Trazado_122646" data-name="Trazado 122646" d="M826.294,898.713a25.523,25.523,0,0,1-12.471-2.975c-3.49-2.016-5.41-4.747-5.41-7.692v-6.163a.848.848,0,1,1,1.7,0v6.163c0,2.312,1.62,4.521,4.563,6.222,6.408,3.7,16.835,3.7,23.243,0,2.943-1.7,4.563-3.912,4.563-6.222a.848.848,0,0,1,1.7,0c0,2.94-1.922,5.671-5.41,7.692A25.527,25.527,0,0,1,826.294,898.713Z" transform="translate(-808.413 -881.033)" fill="#373a3a"/>
          </g>
          <g id="Grupo_132567" data-name="Grupo 132567" transform="translate(96.062 72.486)">
            <path id="Trazado_122647" data-name="Trazado 122647" d="M824.821,890.692a.85.85,0,0,1-.849-.849v-9.474a.848.848,0,0,1,1.7,0v9.474A.848.848,0,0,1,824.821,890.692Z" transform="translate(-823.972 -879.522)" fill="#373a3a"/>
          </g>
          <g id="Grupo_132568" data-name="Grupo 132568" transform="translate(3.156 19.788)">
            <path id="Trazado_122648" data-name="Trazado 122648" d="M787.4,866.12a3.982,3.982,0,0,1-1.966-.584,7.551,7.551,0,0,1-2.354-2.255h0a8.2,8.2,0,0,1-1.543-4.5,2.947,2.947,0,0,1,4.744-2.739,8.5,8.5,0,0,1,3.9,6.755,3.056,3.056,0,0,1-2,3.214A2.778,2.778,0,0,1,787.4,866.12Zm-3.089-8.968a.961.961,0,0,0-.484.118,1.685,1.685,0,0,0-.593,1.511,6.569,6.569,0,0,0,1.241,3.531h0a5.8,5.8,0,0,0,1.806,1.752,1.928,1.928,0,0,0,1.419.317c.7-.206.782-1.178.782-1.585a6.86,6.86,0,0,0-3.048-5.285A2.348,2.348,0,0,0,784.312,857.152Z" transform="translate(-781.538 -855.453)" fill="#373a3a"/>
          </g>
          <g id="Grupo_132569" data-name="Grupo 132569" transform="translate(0 26.283)">
            <path id="Trazado_122649" data-name="Trazado 122649" d="M793.466,874.7a2.2,2.2,0,0,1-1.086-.315l-10.47-6.047a3.925,3.925,0,0,1-1.712-2.305,2.2,2.2,0,0,1,.147-1.7,24.692,24.692,0,0,1,4.591-5.7.848.848,0,0,1,1.114,1.279,23.4,23.4,0,0,0-4.245,5.283,2.021,2.021,0,0,0,.952,1.673l10.472,6.049a.856.856,0,0,0,.12.059,1.351,1.351,0,0,0-.085-.434,103.265,103.265,0,0,0-4.372-10.5.848.848,0,1,1,1.522-.749,104.427,104.427,0,0,1,4.449,10.678,2.078,2.078,0,0,1-.409,2.378A1.528,1.528,0,0,1,793.466,874.7Z" transform="translate(-780.097 -858.419)" fill="#373a3a"/>
          </g>
          <g id="Grupo_132570" data-name="Grupo 132570" transform="translate(39.385)">
            <path id="Trazado_122650" data-name="Trazado 122650" d="M803.946,857.078a3.974,3.974,0,0,1-1.964-.585,7.517,7.517,0,0,1-2.349-2.251h0a8.226,8.226,0,0,1-1.548-4.5,2.946,2.946,0,0,1,4.745-2.739,8.5,8.5,0,0,1,3.9,6.748,3.056,3.056,0,0,1-2,3.214A2.785,2.785,0,0,1,803.946,857.078Zm-2.919-3.8a5.85,5.85,0,0,0,1.8,1.745,1.936,1.936,0,0,0,1.421.318c.7-.206.782-1.178.782-1.585a6.855,6.855,0,0,0-3.048-5.279,1.3,1.3,0,0,0-2.2,1.27,6.6,6.6,0,0,0,1.246,3.532Z" transform="translate(-798.085 -846.415)" fill="#373a3a"/>
          </g>
          <g id="Grupo_132571" data-name="Grupo 132571" transform="translate(36.229 6.497)">
            <path id="Trazado_122651" data-name="Trazado 122651" d="M810.013,865.656a2.174,2.174,0,0,1-1.086-.318l-10.47-6.041a3.953,3.953,0,0,1-1.717-2.325,2.182,2.182,0,0,1,.153-1.686,24.69,24.69,0,0,1,4.587-5.695.848.848,0,1,1,1.116,1.276,23.4,23.4,0,0,0-4.245,5.285,2.048,2.048,0,0,0,.957,1.675l10.468,6.041a.877.877,0,0,0,.12.059,1.285,1.285,0,0,0-.088-.429,102.976,102.976,0,0,0-4.37-10.494.848.848,0,1,1,1.522-.749,104.658,104.658,0,0,1,4.449,10.678,2.068,2.068,0,0,1-.409,2.371A1.511,1.511,0,0,1,810.013,865.656Z" transform="translate(-796.644 -849.382)" fill="#373a3a"/>
          </g>
          <g id="Grupo_132572" data-name="Grupo 132572" transform="translate(47.494 29.33)">
            <path id="Trazado_122652" data-name="Trazado 122652" d="M807.652,870.474a3.966,3.966,0,0,1-1.964-.585,7.527,7.527,0,0,1-2.356-2.255,8.194,8.194,0,0,1-1.544-4.493,2.946,2.946,0,0,1,4.745-2.739,8.5,8.5,0,0,1,3.9,6.748,3.056,3.056,0,0,1-2,3.214A2.78,2.78,0,0,1,807.652,870.474Zm-3.091-8.961a.967.967,0,0,0-.482.116,1.687,1.687,0,0,0-.593,1.513,6.555,6.555,0,0,0,1.241,3.525h0a5.852,5.852,0,0,0,1.806,1.754,1.937,1.937,0,0,0,1.419.315c.705-.2.782-1.178.782-1.585a6.849,6.849,0,0,0-3.048-5.279A2.355,2.355,0,0,0,804.561,861.512Z" transform="translate(-801.789 -859.811)" fill="#373a3a"/>
          </g>
          <g id="Grupo_132573" data-name="Grupo 132573" transform="translate(44.342 35.821)">
            <path id="Trazado_122653" data-name="Trazado 122653" d="M813.717,879.055a2.193,2.193,0,0,1-1.084-.318L802.166,872.7a3.931,3.931,0,0,1-1.721-2.327,2.167,2.167,0,0,1,.16-1.688l.044-.079a24.8,24.8,0,0,1,4.534-5.616.848.848,0,1,1,1.119,1.274,23.565,23.565,0,0,0-4.2,5.213l-.044.077a2.02,2.02,0,0,0,.955,1.675l10.47,6.043a.864.864,0,0,0,.116.059,1.262,1.262,0,0,0-.083-.431c-.771-2.176-1.717-4.585-2.665-6.778-.571-1.325-1.147-2.573-1.712-3.711a.849.849,0,0,1,1.522-.753c.576,1.165,1.165,2.439,1.749,3.792.961,2.226,1.922,4.672,2.706,6.888a2.071,2.071,0,0,1-.418,2.373A1.517,1.517,0,0,1,813.717,879.055Z" transform="translate(-800.349 -862.776)" fill="#373a3a"/>
          </g>
          <g id="Grupo_132574" data-name="Grupo 132574" transform="translate(10.403 14.28)">
            <path id="Trazado_122654" data-name="Trazado 122654" d="M785.7,872.707a.848.848,0,0,1-.477-1.55l26.562-18.074a.849.849,0,0,1,.955,1.4l-26.562,18.074A.855.855,0,0,1,785.7,872.707Z" transform="translate(-784.848 -852.937)" fill="#373a3a"/>
          </g>
          <g id="Grupo_132575" data-name="Grupo 132575" transform="translate(46.871 20.165)">
            <path id="Trazado_122655" data-name="Trazado 122655" d="M805.125,866.5a.847.847,0,0,1-.81-.6l-2.774-9.176a.849.849,0,0,1,1.625-.493l2.772,9.178a.85.85,0,0,1-.565,1.058A.89.89,0,0,1,805.125,866.5Z" transform="translate(-801.504 -855.625)" fill="#373a3a"/>
          </g>
        </g>
      </g>
    </g>
  </g>
</svg>
