<svg xmlns="http://www.w3.org/2000/svg" width="83.455" height="104.171" viewBox="0 0 83.455 104.171">
  <g id="folders_in_row" data-name="folders in row" transform="translate(-957.99 -661.415)">
    <g id="Grupo_132529" data-name="Grupo 132529" transform="translate(958.894 662.319)">
      <g id="Grupo_132511" data-name="Grupo 132511" transform="translate(45.664 26.358)">
        <path id="Trazado_122594" data-name="Trazado 122594" d="M1035.5,685.726v55.232l-35.983,20.774V706.5Z" transform="translate(-999.518 -685.726)" fill="#ba68c8"/>
      </g>
      <g id="Grupo_132512" data-name="Grupo 132512" transform="translate(39.839 25.812)">
        <path id="Trazado_122595" data-name="Trazado 122595" d="M1028.731,690.054v.007l-28.582,16.5-5.826-3.361c8.252-4.879,16.93-10.685,22.267-14.345,1.938-1.328,5.2-3.615,5.2-3.615Z" transform="translate(-994.323 -685.239)" fill="#fff"/>
      </g>
      <g id="Grupo_132513" data-name="Grupo 132513" transform="translate(30.443 17.565)">
        <path id="Trazado_122596" data-name="Trazado 122596" d="M1021.914,677.885v8.869c-.875.622-2.369,1.665-4.307,2.993V683.8c-5.19,4.123-18.894,13.119-26.67,17.75l-4.974-2.872-.019-.026Z" transform="translate(-985.944 -677.885)" fill="#5f646b"/>
      </g>
      <g id="Grupo_132514" data-name="Grupo 132514" transform="translate(35.436 23.48)">
        <path id="Trazado_122597" data-name="Trazado 122597" d="M1017.067,683.16v5.947c-5.337,3.659-14.015,9.465-22.267,14.344h-.005l-4.4-2.541C998.173,696.279,1011.877,687.283,1017.067,683.16Z" transform="translate(-990.397 -683.16)" fill="#c2c7cc"/>
      </g>
      <g id="Grupo_132515" data-name="Grupo 132515" transform="translate(20.202 16.06)">
        <path id="Trazado_122598" data-name="Trazado 122598" d="M1015.475,682.4v.006L987.04,698.822l-10.228-5.9,28.372-16.378,2.6,1.48v.006Z" transform="translate(-976.812 -676.543)" fill="#fff"/>
      </g>
      <g id="Grupo_132516" data-name="Grupo 132516" transform="translate(15.215 8.773)">
        <path id="Trazado_122599" data-name="Trazado 122599" d="M1008.328,670.045v8.767l-2.6-1.48-28.372,16.378-4.968-2.872-.019-.038Z" transform="translate(-972.364 -670.045)" fill="#5f646b"/>
      </g>
      <g id="Grupo_132517" data-name="Grupo 132517" transform="translate(30.462 38.358)">
        <path id="Trazado_122600" data-name="Trazado 122600" d="M1001.163,705.2v55.232l-15.2-8.767V696.428l9.371,5.413h.006Zm-4.085,33.378v-30.8l-7.477-4.319v30.8Zm-.889,8.805a5.807,5.807,0,0,0-2.63-4.549c-1.449-.832-2.624-.153-2.624,1.518a5.806,5.806,0,0,0,2.624,4.549C995.014,749.742,996.189,749.061,996.189,747.385Z" transform="translate(-985.961 -696.428)" fill="#fff"/>
      </g>
      <g id="Grupo_132518" data-name="Grupo 132518" transform="translate(34.102 45.391)">
        <path id="Trazado_122601" data-name="Trazado 122601" d="M996.685,707.02v30.8l-7.477-4.314V702.7Z" transform="translate(-989.207 -702.7)" fill="#fff"/>
      </g>
      <g id="Grupo_132519" data-name="Grupo 132519" transform="translate(12.025 8.526)">
        <path id="Trazado_122602" data-name="Trazado 122602" d="M998.985,669.824v5.838L972.69,690.839l-3.17-1.83C992.778,675.485,998.985,669.824,998.985,669.824Z" transform="translate(-969.52 -669.824)" fill="#c2c7cc"/>
      </g>
      <g id="Grupo_132520" data-name="Grupo 132520" transform="translate(35.436 84.411)">
        <path id="Trazado_122603" data-name="Trazado 122603" d="M993.021,737.851a5.807,5.807,0,0,1,2.63,4.549c0,1.676-1.175,2.357-2.63,1.518a5.806,5.806,0,0,1-2.624-4.549C990.4,737.7,991.572,737.019,993.021,737.851Z" transform="translate(-990.397 -737.496)" fill="#373a3a"/>
      </g>
      <g id="Grupo_132521" data-name="Grupo 132521" transform="translate(7.16 5.056)">
        <path id="Trazado_122604" data-name="Trazado 122604" d="M994.01,667.626c2.567,1.189,5.5,2.574,5.5,2.574s-6.207,5.661-29.465,19.185l-4.866-2.8c10.044-6,22.572-15.394,26.866-19.854C992.625,666.991,993.3,667.3,994.01,667.626Z" transform="translate(-965.181 -666.73)" fill="#fff"/>
      </g>
      <g id="Grupo_132522" data-name="Grupo 132522" transform="translate(0 0)">
        <path id="Trazado_122605" data-name="Trazado 122605" d="M994.785,662.221v5.952c-.705-.324-1.385-.635-1.964-.9-4.294,4.46-16.822,13.85-26.866,19.854l-7.16-4.137Z" transform="translate(-958.796 -662.221)" fill="#5f646b"/>
      </g>
      <g id="Grupo_132523" data-name="Grupo 132523" transform="translate(15.234 29.566)">
        <path id="Trazado_122606" data-name="Trazado 122606" d="M987.609,697.38v55.195l-15.228-8.755V688.587l15.2,8.774.012-.007Zm-4.117,33.359V699.934l-7.477-4.314v30.805Zm-.889,8.8A5.8,5.8,0,0,0,979.973,735c-1.448-.839-2.623-.159-2.623,1.512a5.818,5.818,0,0,0,2.623,4.555C981.428,741.894,982.6,741.215,982.6,739.544Z" transform="translate(-972.381 -688.587)" fill="#fff"/>
      </g>
      <g id="Grupo_132524" data-name="Grupo 132524" transform="translate(18.868 36.599)">
        <path id="Trazado_122607" data-name="Trazado 122607" d="M983.1,699.172v30.805l-7.477-4.314V694.859Z" transform="translate(-975.622 -694.859)" fill="#64b5f6"/>
      </g>
      <g id="Grupo_132525" data-name="Grupo 132525" transform="translate(20.202 75.615)">
        <path id="Trazado_122608" data-name="Trazado 122608" d="M979.435,730.012a5.8,5.8,0,0,1,2.631,4.548c0,1.671-1.175,2.35-2.631,1.518a5.818,5.818,0,0,1-2.623-4.555C976.812,729.853,977.987,729.173,979.435,730.012Z" transform="translate(-976.812 -729.652)" fill="#373a3a"/>
      </g>
      <g id="Grupo_132526" data-name="Grupo 132526" transform="translate(0 20.773)">
        <path id="Trazado_122609" data-name="Trazado 122609" d="M974.03,689.539v55.188l-.038.026-15.2-8.773V680.746l15.2,8.768.019-.014ZM969.908,722.9v-30.8l-7.478-4.321v30.812Zm-.89,8.8a5.794,5.794,0,0,0-2.63-4.541c-1.442-.839-2.624-.159-2.624,1.511a5.815,5.815,0,0,0,2.624,4.549C967.842,734.053,969.017,733.374,969.017,731.7Z" transform="translate(-958.796 -680.746)" fill="#fff"/>
      </g>
      <g id="Grupo_132527" data-name="Grupo 132527" transform="translate(3.634 27.8)">
        <path id="Trazado_122610" data-name="Trazado 122610" d="M969.514,691.332v30.805l-7.477-4.314V687.012Z" transform="translate(-962.036 -687.012)" fill="#fff"/>
      </g>
      <g id="Grupo_132528" data-name="Grupo 132528" transform="translate(4.968 66.822)">
        <path id="Trazado_122611" data-name="Trazado 122611" d="M965.85,722.171a5.794,5.794,0,0,1,2.63,4.541c0,1.678-1.175,2.357-2.63,1.519a5.815,5.815,0,0,1-2.624-4.549C963.226,722.012,964.408,721.332,965.85,722.171Z" transform="translate(-963.226 -721.811)" fill="#373a3a"/>
      </g>
    </g>
    <g id="Grupo_132546" data-name="Grupo 132546" transform="translate(957.99 661.415)">
      <g id="Grupo_132530" data-name="Grupo 132530" transform="translate(0 8.774)">
        <path id="Trazado_122612" data-name="Trazado 122612" d="M974.09,747.052a.894.894,0,0,1-.452-.121l-15.2-8.774a.9.9,0,0,1-.452-.782V682.142a.9.9,0,0,1,1.355-.781l14.745,8.505,35.531-20.506a.9.9,0,0,1,1.356.783v8.767a.9.9,0,1,1-1.808,0v-7.2l-34.628,19.986a.907.907,0,0,1-.9,0L959.8,683.708v53.146l14.616,8.438a.9.9,0,0,1,.214,1.583l-.038.026A.907.907,0,0,1,974.09,747.052Z" transform="translate(-957.99 -669.239)" fill="#373a3a"/>
      </g>
      <g id="Grupo_132531" data-name="Grupo 132531" transform="translate(3.634 27.8)">
        <path id="Trazado_122613" data-name="Trazado 122613" d="M969.611,723.139a.9.9,0,0,1-.451-.121l-7.477-4.314a.9.9,0,0,1-.452-.783V687.11a.9.9,0,0,1,1.356-.782l7.477,4.319a.9.9,0,0,1,.451.783v30.8a.9.9,0,0,1-.9.9Zm-6.573-5.739,5.671,3.271V691.952l-5.671-3.275Z" transform="translate(-961.231 -686.206)" fill="#373a3a"/>
      </g>
      <g id="Grupo_132532" data-name="Grupo 132532" transform="translate(4.968 66.825)">
        <path id="Trazado_122614" data-name="Trazado 122614" d="M967.129,729.59a3.293,3.293,0,0,1-1.633-.479,6.707,6.707,0,0,1-3.076-5.331,2.485,2.485,0,0,1,3.982-2.293,6.7,6.7,0,0,1,3.079,5.323,2.738,2.738,0,0,1-1.221,2.486A2.241,2.241,0,0,1,967.129,729.59Zm-2.348-6.779a.461.461,0,0,0-.234.055c-.2.114-.318.456-.318.914a4.959,4.959,0,0,0,2.172,3.766.744.744,0,0,0,1.275-.736,4.882,4.882,0,0,0-2.178-3.759A1.517,1.517,0,0,0,964.781,722.811Z" transform="translate(-962.42 -721.007)" fill="#373a3a"/>
      </g>
      <g id="Grupo_132533" data-name="Grupo 132533" transform="translate(15.235 17.566)">
        <path id="Trazado_122615" data-name="Trazado 122615" d="M987.706,754.875a.893.893,0,0,1-.449-.121L972.029,746a.9.9,0,0,1-.453-.783V689.983a.9.9,0,0,1,1.354-.782l14.745,8.512,35.531-20.513a.9.9,0,0,1,1.356.782v8.869a.9.9,0,1,1-1.806,0v-7.3L988.127,699.54a.9.9,0,0,1-.9,0l-13.841-7.991v53.145l14.775,8.493a.9.9,0,0,1-.452,1.688Z" transform="translate(-971.576 -677.08)" fill="#373a3a"/>
      </g>
      <g id="Grupo_132534" data-name="Grupo 132534" transform="translate(18.868 36.599)">
        <path id="Trazado_122616" data-name="Trazado 122616" d="M983.2,730.979a.9.9,0,0,1-.452-.121l-7.477-4.314a.9.9,0,0,1-.452-.783V694.957a.9.9,0,0,1,1.354-.783l7.479,4.314a.905.905,0,0,1,.452.783v30.805a.9.9,0,0,1-.9.9Zm-6.573-5.739,5.669,3.271V699.792l-5.669-3.271Z" transform="translate(-974.816 -694.053)" fill="#373a3a"/>
      </g>
      <g id="Grupo_132535" data-name="Grupo 132535" transform="translate(20.202 75.617)">
        <path id="Trazado_122617" data-name="Trazado 122617" d="M980.71,737.433a3.307,3.307,0,0,1-1.626-.473,6.723,6.723,0,0,1-3.078-5.339,2.483,2.483,0,0,1,3.98-2.293,6.707,6.707,0,0,1,3.082,5.33,2.734,2.734,0,0,1-1.218,2.478A2.246,2.246,0,0,1,980.71,737.433Zm-2.35-6.78a.464.464,0,0,0-.23.053,1.076,1.076,0,0,0-.317.915,4.9,4.9,0,0,0,2.173,3.772.744.744,0,0,0,1.274-.735,4.883,4.883,0,0,0-2.178-3.766A1.54,1.54,0,0,0,978.36,730.653Z" transform="translate(-976.006 -728.849)" fill="#373a3a"/>
      </g>
      <g id="Grupo_132536" data-name="Grupo 132536" transform="translate(30.462 38.359)">
        <path id="Trazado_122618" data-name="Trazado 122618" d="M1001.261,761.435a.9.9,0,0,1-.451-.121l-15.2-8.767a.9.9,0,0,1-.453-.783V696.526a.9.9,0,0,1,1.356-.783l9.312,5.379c.023.01.044.021.065.034l5.825,3.361a.9.9,0,0,1,.452.783v55.232a.9.9,0,0,1-.9.9Zm-14.3-10.192,13.4,7.725V705.821l-5.313-3.065c-.024-.011-.046-.022-.067-.035l-8.016-4.63Z" transform="translate(-985.155 -695.622)" fill="#373a3a"/>
      </g>
      <g id="Grupo_132537" data-name="Grupo 132537" transform="translate(34.103 45.392)">
        <path id="Trazado_122619" data-name="Trazado 122619" d="M996.783,738.819a.915.915,0,0,1-.452-.12l-7.477-4.314a.9.9,0,0,1-.452-.783V702.8a.9.9,0,0,1,1.355-.783l7.478,4.32a.9.9,0,0,1,.451.783v30.8a.9.9,0,0,1-.9.9Zm-6.574-5.739,5.671,3.272V707.639l-5.671-3.275Z" transform="translate(-988.402 -701.894)" fill="#373a3a"/>
      </g>
      <g id="Grupo_132538" data-name="Grupo 132538" transform="translate(35.436 84.414)">
        <path id="Trazado_122620" data-name="Trazado 122620" d="M994.3,745.277a3.293,3.293,0,0,1-1.632-.478,6.7,6.7,0,0,1-3.077-5.332,2.487,2.487,0,0,1,3.978-2.3,6.707,6.707,0,0,1,3.084,5.332,2.738,2.738,0,0,1-1.221,2.485A2.242,2.242,0,0,1,994.3,745.277Zm-2.347-6.78a.467.467,0,0,0-.237.055c-.2.114-.318.457-.318.915a4.948,4.948,0,0,0,2.17,3.766.744.744,0,0,0,1.277-.734,4.885,4.885,0,0,0-2.177-3.766A1.53,1.53,0,0,0,991.953,738.5Z" transform="translate(-989.591 -736.693)" fill="#373a3a"/>
      </g>
      <g id="Grupo_132539" data-name="Grupo 132539" transform="translate(45.664 26.358)">
        <path id="Trazado_122621" data-name="Trazado 122621" d="M999.617,762.734a.9.9,0,0,1-.453-1.685l35.531-20.513V687.389l-34.628,19.992a.9.9,0,1,1-.9-1.565l35.983-20.773a.9.9,0,0,1,1.356.782v55.233a.9.9,0,0,1-.452.782l-35.983,20.774A.889.889,0,0,1,999.617,762.734Z" transform="translate(-998.712 -684.92)" fill="#373a3a"/>
      </g>
      <g id="Grupo_132540" data-name="Grupo 132540" transform="translate(0)">
        <path id="Trazado_122622" data-name="Trazado 122622" d="M958.895,684a.9.9,0,0,1-.453-1.685l35.989-20.774a.9.9,0,0,1,1.355.783v5.952a.9.9,0,1,1-1.807,0v-4.388l-34.633,19.992A.892.892,0,0,1,958.895,684Z" transform="translate(-957.99 -661.415)" fill="#373a3a"/>
      </g>
      <g id="Grupo_132541" data-name="Grupo 132541" transform="translate(7.16 5.057)">
        <path id="Trazado_122623" data-name="Trazado 122623" d="M970.145,690.386a.9.9,0,0,1-.455-1.685c17.852-10.382,25.642-16.13,28.241-18.189-1.635-.761-4.378-2.038-5.589-2.6-4.9,4.86-17.292,13.979-26.6,19.542a.9.9,0,0,1-.927-1.551c10.391-6.21,22.655-15.525,26.68-19.7a.9.9,0,0,1,1.022-.2c.577.259,7.195,3.342,7.476,3.473a.9.9,0,0,1,.227,1.487c-.256.234-6.543,5.879-29.62,19.3A.9.9,0,0,1,970.145,690.386Z" transform="translate(-964.375 -665.925)" fill="#373a3a"/>
      </g>
      <g id="Grupo_132542" data-name="Grupo 132542" transform="translate(41.49 8.526)">
        <path id="Trazado_122624" data-name="Trazado 122624" d="M995.894,676.664a.9.9,0,0,1-.9-.9v-5.838a.9.9,0,1,1,1.808,0v5.838A.9.9,0,0,1,995.894,676.664Z" transform="translate(-994.99 -669.018)" fill="#373a3a"/>
      </g>
      <g id="Grupo_132543" data-name="Grupo 132543" transform="translate(20.202 16.06)">
        <path id="Trazado_122625" data-name="Trazado 122625" d="M976.91,693.922a.9.9,0,0,1-.452-1.687l28.372-16.377a.9.9,0,0,1,.9,0l2.605,1.48c.029.017.056.035.083.054l7.6,4.324a.9.9,0,0,1-.893,1.571l-7.687-4.371a.876.876,0,0,1-.083-.054l-2.072-1.177L977.362,693.8A.905.905,0,0,1,976.91,693.922Z" transform="translate(-976.006 -675.737)" fill="#373a3a"/>
      </g>
      <g id="Grupo_132544" data-name="Grupo 132544" transform="translate(35.436 23.48)">
        <path id="Trazado_122626" data-name="Trazado 122626" d="M990.5,701.912a.9.9,0,0,1-.463-1.68c7.8-4.648,21.4-13.572,26.57-17.682a.9.9,0,0,1,1.466.708V689.2a.9.9,0,0,1-1.808,0v-4.112c-5.99,4.485-18.1,12.4-25.3,16.692A.9.9,0,0,1,990.5,701.912Z" transform="translate(-989.591 -682.354)" fill="#373a3a"/>
      </g>
      <g id="Grupo_132545" data-name="Grupo 132545" transform="translate(39.836 25.812)">
        <path id="Trazado_122627" data-name="Trazado 122627" d="M994.421,704.2a.9.9,0,0,1-.4-1.717c8.019-4.745,16.471-10.381,22.156-14.277,1.933-1.326,5.188-3.609,5.189-3.61a.9.9,0,0,1,1.034,0l6.943,4.816a.9.9,0,1,1-1.029,1.485l-6.426-4.457c-1,.7-3.222,2.253-4.689,3.259-5.722,3.922-14.239,9.6-22.318,14.377A.9.9,0,0,1,994.421,704.2Z" transform="translate(-993.515 -684.433)" fill="#373a3a"/>
      </g>
    </g>
  </g>
</svg>
