<svg xmlns="http://www.w3.org/2000/svg" xmlns:xlink="http://www.w3.org/1999/xlink" width="512" height="438" viewBox="0 0 512 438">
  <defs>
    <clipPath id="clip-path">
      <circle id="Elipse_4816" data-name="Elipse 4816" cx="26.787" cy="26.787" r="26.787" transform="translate(726.179 798.663)" fill="#fff"/>
    </clipPath>
  </defs>
  <g id="Grupo_138765" data-name="Grupo 138765" transform="translate(11628 12554)">
    <g id="Rectángulo_41687" data-name="Rectángulo 41687" transform="translate(-11628 -12554)" fill="rgba(255,255,255,0.03)" stroke="rgba(112,112,112,0)" stroke-width="1">
      <rect width="512" height="438" stroke="none"/>
      <rect x="0.5" y="0.5" width="511" height="437" fill="none"/>
    </g>
    <g id="Grupo_138762" data-name="Grupo 138762">
      <g id="Grupo_138761" data-name="Grupo 138761" transform="translate(-12035.6 -13282.689)">
        <g id="Grupo_132466" data-name="Grupo 132466">
          <rect id="Rectángulo_41580" data-name="Rectángulo 41580" width="254.65" height="248.168" rx="19" transform="translate(654.818 749.947)" fill="#dee9f0"/>
          <path id="Trazado_122557" data-name="Trazado 122557" d="M890.791,998.648h-217.3a19.232,19.232,0,0,1-19.21-19.21V768.624a19.231,19.231,0,0,1,19.21-19.209h217.3A19.231,19.231,0,0,1,910,768.624V979.438A19.231,19.231,0,0,1,890.791,998.648ZM673.495,750.48a18.165,18.165,0,0,0-18.145,18.144V979.438a18.166,18.166,0,0,0,18.145,18.145h217.3a18.165,18.165,0,0,0,18.144-18.145V768.624a18.164,18.164,0,0,0-18.144-18.144Z" fill="#555"/>
        </g>
        <rect id="Rectángulo_41581" data-name="Rectángulo 41581" width="54.27" height="3.96" transform="translate(825.976 778.861)" fill="#5c22c3"/>
        <rect id="Rectángulo_41582" data-name="Rectángulo 41582" width="86.468" height="3.96" transform="translate(808.93 795.907)" fill="#64b5f6"/>
        <rect id="Rectángulo_41583" data-name="Rectángulo 41583" width="77.879" height="3.96" transform="translate(808.93 807.619)" fill="#64b5f6"/>
        <rect id="Rectángulo_41584" data-name="Rectángulo 41584" width="68.935" height="3.96" transform="translate(808.93 819.331)" fill="#64b5f6"/>
        <rect id="Rectángulo_41585" data-name="Rectángulo 41585" width="86.468" height="3.96" transform="translate(808.93 831.043)" fill="#64b5f6"/>
        <rect id="Rectángulo_41586" data-name="Rectángulo 41586" width="63.827" height="3.96" transform="translate(808.93 842.755)" fill="#64b5f6"/>
        <g id="Grupo_132467" data-name="Grupo 132467">
          <rect id="Rectángulo_41587" data-name="Rectángulo 41587" width="82.988" height="3.96" transform="translate(673.174 906.997)" fill="#e0e0ff"/>
          <rect id="Rectángulo_41588" data-name="Rectángulo 41588" width="214.576" height="3.96" transform="translate(673.412 917.782)" fill="#e0e0ff"/>
        </g>
        <g id="Grupo_132470" data-name="Grupo 132470">
          <rect id="Rectángulo_41589" data-name="Rectángulo 41589" width="99.936" height="105.764" transform="translate(673.305 778.861)" fill="#fff"/>
          <g id="Grupo_132468" data-name="Grupo 132468">
            <rect id="Rectángulo_41590" data-name="Rectángulo 41590" width="6.948" height="24.323" transform="translate(682.342 848.726)" fill="#b7b7ff"/>
            <rect id="Rectángulo_41591" data-name="Rectángulo 41591" width="6.948" height="20.895" transform="translate(694.827 852.155)" fill="#e0e0ff"/>
            <rect id="Rectángulo_41592" data-name="Rectángulo 41592" width="6.948" height="34.146" transform="translate(707.313 838.903)" fill="#b7b7ff"/>
            <rect id="Rectángulo_41593" data-name="Rectángulo 41593" width="6.948" height="31.701" transform="translate(719.799 841.348)" fill="#e0e0ff"/>
            <rect id="Rectángulo_41594" data-name="Rectángulo 41594" width="6.948" height="42.644" transform="translate(732.284 830.406)" fill="#b7b7ff"/>
            <rect id="Rectángulo_41595" data-name="Rectángulo 41595" width="6.948" height="48.556" transform="translate(744.77 824.494)" fill="#e0e0ff"/>
            <rect id="Rectángulo_41596" data-name="Rectángulo 41596" width="6.948" height="53.827" transform="translate(757.256 819.223)" fill="#b7b7ff"/>
            <path id="Trazado_122558" data-name="Trazado 122558" d="M697.088,835.39l-13.122-5.248.251-.626,12.749,5.1,12.991-10.751,12.118.282L758.6,801.589l.355.574-36.7,22.662-12.066-.281Z" fill="#b7b7ff"/>
          </g>
          <g id="Grupo_132469" data-name="Grupo 132469">
            <rect id="Rectángulo_41597" data-name="Rectángulo 41597" width="14.256" height="5.927" transform="translate(681.076 799.814)" fill="#b7b7ff"/>
            <rect id="Rectángulo_41598" data-name="Rectángulo 41598" width="13.335" height="0.696" transform="translate(700.042 803.212)" fill="#b7b7ff"/>
          </g>
        </g>
        <g id="Grupo_132473" data-name="Grupo 132473">
          <g id="Grupo_132471" data-name="Grupo 132471">
            <rect id="Rectángulo_41599" data-name="Rectángulo 41599" width="213.567" height="41.05" transform="translate(675 936.563)" fill="#fff"/>
          </g>
          <g id="Grupo_132472" data-name="Grupo 132472">
            <path id="Trazado_122561" data-name="Trazado 122561" d="M889.187,978.226H675.1V936.654H889.187ZM675.626,977.7H888.665V937.176H675.626Z" fill="#b7b7ff"/>
            <rect id="Rectángulo_41600" data-name="Rectángulo 41600" width="213.561" height="0.522" transform="translate(675.365 969.495)" fill="#b7b7ff"/>
            <rect id="Rectángulo_41601" data-name="Rectángulo 41601" width="213.561" height="0.522" transform="translate(675.365 961.285)" fill="#b7b7ff"/>
            <rect id="Rectángulo_41602" data-name="Rectángulo 41602" width="213.561" height="0.522" transform="translate(675.365 953.074)" fill="#b7b7ff"/>
            <rect id="Rectángulo_41603" data-name="Rectángulo 41603" width="213.561" height="0.522" transform="translate(675.365 944.864)" fill="#b7b7ff"/>
            <rect id="Rectángulo_41604" data-name="Rectángulo 41604" width="0.522" height="41.05" transform="translate(853.072 936.915)" fill="#b7b7ff"/>
            <rect id="Rectángulo_41605" data-name="Rectángulo 41605" width="0.522" height="41.05" transform="translate(817.479 936.915)" fill="#b7b7ff"/>
            <rect id="Rectángulo_41606" data-name="Rectángulo 41606" width="0.522" height="41.05" transform="translate(781.885 936.915)" fill="#b7b7ff"/>
            <rect id="Rectángulo_41607" data-name="Rectángulo 41607" width="0.522" height="41.05" transform="translate(746.291 936.915)" fill="#b7b7ff"/>
            <rect id="Rectángulo_41608" data-name="Rectángulo 41608" width="0.522" height="41.05" transform="translate(710.697 936.915)" fill="#b7b7ff"/>
          </g>
          <path id="Trazado_122562" data-name="Trazado 122562" d="M681.23,971.465c3.105-4.326,3.776-9.9,6.55-14.45,1.353-2.222,3.144-4.425,5.622-5.419,4.272-1.713,5.362,3.8,5.453,6.863.134,4.5-.613,9.391,3.107,12.773a4.929,4.929,0,0,0,4.562,1.354c2.009-.534,3.26-2.375,4.254-4.066,2.848-4.842,4.657-10.392,6.636-15.629,1-2.645,2.27-6.034,4.887-7.517,3.731-2.112,4.139,2.563,4.13,5.026-.01,2.7.019,5.4.042,8.1.011,1.3-.256,4.005,1.27,4.728.9.426,1.608-.387,2.112-1.04.438-.568.742-1.231,1.179-1.8a1.93,1.93,0,0,1,1.519-.915c.682-.057,1.008-.065,1.471.563a3.792,3.792,0,0,1,.486,1.253c.536,2.025-.015,4.32,1.133,6.191a3.692,3.692,0,0,0,3.3,1.877c2.607-.412,3.27-4.661,3.583-6.7a66.93,66.93,0,0,1,1.562-8.115c.758-2.686,1.741-5.894,3.783-7.9a3.954,3.954,0,0,1,3-1.4c1.68.188,2.206,2.084,2.616,3.444a32.883,32.883,0,0,1,1.48,9.488c0,2.216-.647,4.99.831,6.909a3.383,3.383,0,0,0,3.425,1.3c1.88-.469,2.335-2.3,2.717-3.95a6.925,6.925,0,0,1,.257-.985c.367-.933.513-1.042,1.52-1.083,1.108-.046,1.151.214,1.329,1.133a26.6,26.6,0,0,0,.365,2.776c.353,1.157,1.166,2.222,2.506,1.823,1.237-.368,1.9-1.691,2.307-2.809,1.174-3.212,1.065-6.769,1.24-10.131a16.515,16.515,0,0,1,1.324-6.641c.669-1.315,2.645-3.445,4.173-2.057,1.988,1.806,1.794,6.207,1.839,8.636.1,5.212-.777,10.446-.048,15.64.273,1.943.824,4.844,2.98,5.579,2.986,1.017,5.185-2.233,5.978-4.611.631-1.89.775-3.869,1.224-5.8.236-1.014.6-2.868,1.982-2.289,1.194.5,1.688,2.189,2.737,2.952,3.392,2.467,5.468-2.344,5.867-4.949.583-3.807-.018-8,1.407-11.643a5.153,5.153,0,0,1,1.772-2.455c2.072-1.364,4.112.523,4.737,2.453a16.109,16.109,0,0,1,.412,4.624c.03,1.649.074,3.3.1,4.947.051,2.723-.194,5.5-.019,8.218a5.737,5.737,0,0,0,2.466,4.67c4.092,2.673,8.876-1.5,11.487-4.424a35.18,35.18,0,0,0,6.5-11.424,31.246,31.246,0,0,1,2.767-6.13c.667-1.038,2.519-3.527,4.04-2.839.989.447,1.319,2.238,1.532,3.161a32.936,32.936,0,0,1,.66,4.746c.246,3.026.264,6.06.32,9.094.047,2.569.264,6.445,3.119,7.485,4.459,1.624,6.586-4.762,7.821-7.711,1.022-2.443,2.268-5.757,4.646-7.209,2.022-1.235,3.43.669,4.177,2.364a13.428,13.428,0,0,1,1.11,5.2c.015,1.237-.081,2.788,1.274,3.385,2.959,1.3,5.654-3.59,6.8-5.519,1.049-1.759,1.845-3.6,2.723-5.447,1.1-2.318,4.72-6.749,6.223-2.307a13.466,13.466,0,0,1,.257,5.217c-.127,1.965-.267,3.935-.2,5.905.072,2.275.484,7.24,3.918,6.712,2.08-.319,4.223-2.611,5.782-3.911a76.049,76.049,0,0,0,6.483-6.108c.308-.325-.184-.818-.492-.492a76.04,76.04,0,0,1-6.483,6.108,47.2,47.2,0,0,1-3.79,2.945c-1.718,1.158-3.4.633-4.087-1.14-1.346-3.48-.526-7.786-.345-11.408.107-2.154-.163-7.083-3.463-6.485-1.977.359-3.341,2.49-4.167,4.134-.937,1.865-1.7,3.784-2.757,5.591s-2.25,3.927-3.992,5.131c-1.313.908-2.851.478-3-1.286-.068-.806.019-1.607-.076-2.416-.274-2.335-1.163-6.194-3.692-7.14-3.509-1.312-6.065,4.593-7.064,6.9-1.022,2.366-1.815,5.4-3.705,7.243-1.333,1.3-3.5,1.753-4.858.248a7.474,7.474,0,0,1-1.387-4.253c-.542-5.5.278-11.181-1.291-16.573-.453-1.555-1.314-3.475-3.238-2.794-3.227,1.142-4.7,5.333-5.795,8.221-1.757,4.616-3.7,9.035-7.128,12.706-1.975,2.117-4.839,4.734-7.93,4.672-4.058-.082-4.564-4.131-4.447-7.234.114-3.034-.006-6.078-.072-9.112-.053-2.446.276-5.36-.931-7.6a4.09,4.09,0,0,0-4.082-2.262,4.719,4.719,0,0,0-3.069,2.837c-1.553,3.33-1.142,7.347-1.493,10.911-.2,2.035-.562,5.527-2.944,6.235-3,.891-3.092-3.613-5.613-3.7-2.672-.091-2.694,6.327-3.157,8.016-.57,2.084-1.654,4.57-4.027,5.022-1.469.279-2.446-.644-3.016-1.906-1.3-2.87-1.137-6.486-1.056-9.561.06-2.3.265-4.586.3-6.883.043-2.476.536-13.112-4.187-11.971-3.267.789-4.1,5.008-4.394,7.8-.387,3.725-.06,7.541-1.123,11.179a5.267,5.267,0,0,1-1.435,2.681c-.824.67-1.808.1-2.214-.765a5.786,5.786,0,0,1-.317-1.945c-.092-1.059-.225-2.635-1.4-3.08-1.364-.513-2.482.881-2.893,2-.508,1.387-.342,3.212-1.751,4.131a2.648,2.648,0,0,1-3.757-1.312c-.711-1.423-.454-3.156-.385-4.687a29.158,29.158,0,0,0-.175-4.652,27.813,27.813,0,0,0-1.87-7.919c-1.486-3.345-4.8-2.456-6.766-.052-3.344,4.08-4.186,10.283-4.911,15.317a16.011,16.011,0,0,1-1.261,4.766c-.37.757-.9,1.653-1.8,1.8-1.507.256-2.753-1.482-3.084-2.716-.538-2.008-.03-9.13-4.21-6.944-1.3.679-1.422,2.3-2.529,3.114-1.73,1.273-1.836-1.542-1.849-2.632-.018-1.635-.028-3.27-.042-4.9a59.631,59.631,0,0,0-.119-6.66c-.171-1.394-.6-3.018-2.036-3.593-3.9-1.556-6.8,4.732-7.848,7.368-2.217,5.591-3.993,11.567-7.112,16.739-1.712,2.839-4.632,4.967-7.566,2.309a10.037,10.037,0,0,1-2.922-7.423c-.072-3.553.992-10.735-3.267-12.582-3.711-1.609-7.644,3.51-9.213,6.142-2.682,4.5-3.376,9.992-6.422,14.237-.262.364.341.712.6.351Z" fill="#5c22c3"/>
        </g>
        <g id="Grupo_132478" data-name="Grupo 132478">
          <path id="Trazado_122563" data-name="Trazado 122563" d="M730.291,845.009l-6.239,3.654-66.338,38.872c-2.041,1.2-4.431.914-5.378-.637l0,0c-.947-1.551-.107-3.806,1.89-5.075l64.753-41.173,6.231-3.961Z" fill="#5c22c3"/>
          <path id="Trazado_122564" data-name="Trazado 122564" d="M730.291,845.009l-6.239,3.654a19.68,19.68,0,0,1-3.19-3.97,19.959,19.959,0,0,1-1.885-4.047l6.231-3.961Z" fill="#1b1b43" opacity="0.6"/>
          <path id="Trazado_122565" data-name="Trazado 122565" d="M721.526,847.093a2.087,2.087,0,1,1,.694-2.869A2.088,2.088,0,0,1,721.526,847.093Z" fill="#fff"/>
          <circle id="Elipse_4814" data-name="Elipse 4814" cx="33.024" cy="33.024" r="33.024" transform="translate(719.942 792.426)" fill="#5c22c3"/>
          <g id="Grupo_132477" data-name="Grupo 132477">
            <circle id="Elipse_4815" data-name="Elipse 4815" cx="26.787" cy="26.787" r="26.787" transform="translate(726.179 798.663)" fill="#fff"/>
            <g id="Grupo_132476" data-name="Grupo 132476" clip-path="url(#clip-path)">
              <g id="Grupo_132474" data-name="Grupo 132474">
                <rect id="Rectángulo_41609" data-name="Rectángulo 41609" width="8.396" height="51.533" transform="translate(733.679 834.504)" fill="#b7b7ff"/>
                <rect id="Rectángulo_41610" data-name="Rectángulo 41610" width="8.396" height="58.677" transform="translate(748.767 827.708)" fill="#e0e0ff"/>
                <rect id="Rectángulo_41611" data-name="Rectángulo 41611" width="8.396" height="65.048" transform="translate(763.856 820.41)" fill="#b7b7ff"/>
              </g>
              <g id="Grupo_132475" data-name="Grupo 132475">
                <rect id="Rectángulo_41612" data-name="Rectángulo 41612" width="40.393" height="1.044" transform="translate(724.398 822.876) rotate(-17.738)" fill="#b7b7ff"/>
                <path id="Trazado_122566" data-name="Trazado 122566" d="M760.477,815.546l-.85-.605,2.534-3.558-3.669-1.256.338-.987,4.051,1.387a.717.717,0,0,1,.476.484.73.73,0,0,1-.143.69Zm2.062-4.034a.215.215,0,0,0,.033.012Zm-.147-.453a.1.1,0,0,0-.016.022Z" fill="#b7b7ff"/>
              </g>
            </g>
          </g>
        </g>
        <path id="Trazado_122656" data-name="Trazado 122656" d="M826.6,891.856a15.567,15.567,0,0,1-2.408-30.946,15.878,15.878,0,0,1,2.408-.183,15.565,15.565,0,0,1,0,31.129Z" transform="translate(45)" fill="#fff"/>
        <path id="Trazado_122657" data-name="Trazado 122657" d="M826.6,876.294l-2.408-15.384a15.878,15.878,0,0,1,2.408-.183,15.5,15.5,0,0,1,11.585,5.182Z" transform="translate(45)" fill="#5c22c3"/>
        <path id="Trazado_125867" data-name="Trazado 125867" d="M826.6,891.856a15.567,15.567,0,0,1-2.408-30.946,15.878,15.878,0,0,1,2.408-.183,15.565,15.565,0,0,1,0,31.129Z" transform="translate(1979.607 1221.881) rotate(150)" fill="#fff"/>
        <path id="Trazado_125868" data-name="Trazado 125868" d="M826.6,876.294l-2.408-15.384a15.878,15.878,0,0,1,2.408-.183,15.5,15.5,0,0,1,11.585,5.182Z" transform="translate(1979.607 1221.881) rotate(150)" fill="#5c22c3"/>
      </g>
    </g>
  </g>
</svg>
